<svg width="498" height="124" viewBox="0 0 498 124" fill="none" xmlns="http://www.w3.org/2000/svg">
<path d="M496.823 5.48545C488.718 17.6619 480.825 30.3953 473.142 43.6856C474.909 42.7638 476.888 42.1108 479.077 41.7267C481.305 41.3041 482.861 41.0929 483.744 41.0929C484.666 41.0929 485.453 41.1313 486.106 41.2081C486.759 41.2465 487.585 41.4578 488.584 41.8419C489.621 42.1876 490.504 42.687 491.234 43.3399C493.001 44.9148 493.885 47.1427 493.885 50.0235C493.885 52.9044 493.097 56.0733 491.522 59.5304C489.986 62.949 487.873 66.3868 485.184 69.8438C482.534 73.3009 479.615 76.5274 476.427 79.5235C473.277 82.4812 469.877 84.9011 466.228 86.7833C462.579 88.6655 459.18 89.6065 456.03 89.6065C454.571 89.6065 452.88 88.6655 450.96 86.7833C449.078 84.9011 448.137 82.4236 448.137 79.3507C448.137 76.2778 449.462 71.5148 452.112 65.0616C454.763 58.6085 457.97 52.0593 461.734 45.4142C465.537 38.7306 469.397 32.2198 473.315 25.8819C477.272 19.544 480.633 14.3585 483.398 10.3253C486.164 6.29209 487.854 3.9682 488.469 3.35362C489.083 2.73903 490.197 2.22048 491.81 1.79795C493.462 1.37543 494.883 1.18337 496.074 1.22178C497.265 1.22178 497.86 1.75954 497.86 2.83506C497.86 3.52647 497.515 4.40993 496.823 5.48545ZM481.266 60.798C482.841 58.0323 483.629 55.5164 483.629 53.2501C483.629 50.9838 482.899 49.8507 481.439 49.8507C480.018 49.8507 477.809 50.4845 474.813 51.7521C471.856 52.9812 470.166 53.5958 469.743 53.5958C469.321 53.5958 468.764 53.2501 468.072 52.5587C460.582 66.0411 456.837 74.6453 456.837 78.3712C456.837 80.0997 457.394 80.964 458.508 80.964C461.158 80.964 464.98 78.7553 469.974 74.338C474.967 69.8823 478.731 65.3689 481.266 60.798Z" fill="#311569"/>
<path d="M451.536 69.6134C452.266 69.6134 452.708 70.1703 452.861 71.2843C453.015 72.3982 453.092 73.5505 453.092 74.7413C453.092 75.9321 452.976 76.7579 452.746 77.2188C451.632 79.3699 449.193 82.0011 445.429 85.1124C441.664 88.1853 438.092 89.7218 434.712 89.7218C432.638 89.7218 430.717 89.088 428.95 87.8204C427.183 86.5912 426.3 84.421 426.3 81.3097C426.3 78.1983 427.126 75.1446 428.777 72.1485C419.251 84.0945 411.78 90.0675 406.364 90.0675C404.213 90.0675 402.465 89.2992 401.121 87.7628C399.815 86.2263 399.162 84.6515 399.162 83.0382C399.162 81.3865 399.392 79.6964 399.853 77.9679C400.314 76.2009 400.794 74.6261 401.294 73.2433C401.832 71.8604 402.6 70.1511 403.599 68.1153C404.636 66.0795 405.404 64.6007 405.903 63.6788C406.403 62.7569 407.19 61.3741 408.266 59.5304C409.379 57.6482 410.82 55.1323 412.587 51.9825C414.392 48.8328 415.871 46.5089 417.023 45.0108C418.214 43.4744 419.366 42.7061 420.48 42.7061C421.594 42.6677 422.574 43.1095 423.419 44.0313C424.264 44.9532 424.686 45.7022 424.686 46.2784C424.686 46.8546 423.4 49.4474 420.826 54.0567C413.221 67.808 409.418 75.8168 409.418 78.0831C409.418 78.6593 409.629 78.9474 410.052 78.9474C411.895 78.9474 416.486 74.9526 423.822 66.963C431.159 58.9734 435.403 53.8647 436.556 51.6368C437.708 49.3705 438.822 47.4692 439.897 45.9327C441.011 44.3963 441.837 43.4552 442.375 43.1095C444.027 42.0339 446.158 41.4578 448.77 41.381C449.193 41.381 449.519 41.4002 449.75 41.4386C449.98 41.477 450.249 41.8035 450.557 42.4181C450.864 43.0326 451.017 43.5128 451.017 43.8585C450.672 44.934 449.135 47.7957 446.408 52.4435C443.719 57.0912 442.221 59.7224 441.914 60.337C437.381 69.7094 435.115 75.8168 435.115 78.6593C435.115 80.2726 435.73 81.0792 436.959 81.0792C439.187 80.7719 441.876 78.9858 445.025 75.7208C446.178 74.53 447.311 73.3201 448.425 72.0909C449.577 70.8617 450.288 70.1511 450.557 69.9591C450.825 69.7286 451.152 69.6134 451.536 69.6134Z" fill="#311569"/>
<path d="M406.998 70.7081C407.267 72.475 407.401 73.877 407.401 74.9142C407.401 75.9128 407.209 76.7963 406.825 77.5645C406.479 78.2944 405.673 79.3507 404.405 80.7335C403.176 82.0779 401.697 83.4415 399.969 84.8243C395.743 88.1661 391.422 89.837 387.005 89.837C380.667 89.837 377.498 87.033 377.498 81.4249C377.498 76.5466 381.742 66.8285 390.231 52.2706C390.539 51.7328 390.75 51.3487 390.865 51.1183C387.907 53.1925 382.242 58.8582 373.868 68.1153C365.533 77.3341 359.982 83.864 357.217 87.7052C356.986 88.0509 356.41 88.435 355.488 88.8575C354.566 89.28 353.836 89.4913 353.299 89.4913C352.799 89.4913 352.262 89.3185 351.685 88.9727C351.071 88.6655 350.687 88.5118 350.533 88.5118C350.034 88.5118 349.784 88.339 349.784 87.9933C349.784 87.686 350.475 85.9382 351.858 82.7501C353.203 79.5235 354.989 75.5287 357.217 70.7657C363.324 57.629 372.408 40.5359 384.47 19.4864C388.695 12.1114 391.998 6.88746 394.38 3.81454C396.07 1.62509 398.912 0.530365 402.907 0.530365C403.752 0.530365 404.232 0.780039 404.348 1.27939C404.463 1.77874 404.52 2.3165 404.52 2.89267C404.52 3.46884 404.405 4.04501 404.175 4.62119L398.01 14.2433C385.795 33.2953 376.595 49.0824 370.411 61.6046C376.403 54.3064 382.223 48.6791 387.869 44.7227C391.364 42.226 393.976 40.9776 395.705 40.9776C397.472 40.9776 399.066 41.2657 400.487 41.8419C401.908 42.3797 402.619 43.7048 402.619 45.8175C402.619 46.5857 401.371 49.4282 398.874 54.3448C391.384 69.0948 387.639 77.2957 387.639 78.9474C387.639 80.5606 388.311 81.3673 389.655 81.3673C391.614 81.3673 394.629 79.4659 398.701 75.6632C401.774 72.7823 403.714 70.9386 404.52 70.1319C404.981 69.7862 405.404 69.6134 405.788 69.6134C406.518 69.6134 406.921 69.9783 406.998 70.7081Z" fill="#311569"/>
<path d="M338.882 56.3038C347.947 46.0095 355.668 40.8624 362.044 40.8624C363.619 40.8624 364.905 41.3425 365.904 42.3028C366.941 43.2247 367.46 44.4347 367.46 45.9327C367.46 47.4308 366.384 49.9467 364.233 53.4806C362.121 56.976 360.162 59.9337 358.356 62.3536C357.396 63.5828 356.301 64.1974 355.072 64.1974C353.881 64.1974 352.94 63.7556 352.249 62.8722C351.596 61.9887 351.269 60.9516 351.269 59.7608C351.269 57.1104 352.691 54.1143 355.533 50.7726L355.418 50.6573C354.15 50.7726 351.001 53.2693 345.969 58.1476C340.975 63.0258 336.711 67.4047 333.178 71.2843C329.682 75.1254 325.879 79.8116 321.769 85.3429C320.579 86.9946 319.561 87.8204 318.716 87.8204C317.909 87.8204 316.834 87.5707 315.489 87.0714C314.106 86.5336 313.28 86.1495 313.012 85.919C312.704 85.6886 312.551 85.3045 312.551 84.7667C312.551 84.2289 312.704 83.6143 313.012 82.9229C313.319 82.1931 313.895 81.1752 314.74 79.8692C315.547 78.5632 316.776 76.4506 318.428 73.5313C320.118 70.6121 322.73 66.1948 326.264 60.2794C329.797 54.364 331.91 50.7918 332.601 49.5626C334.061 47.0274 335.252 45.1837 336.174 44.0313C337.902 41.8419 340.821 40.7472 344.932 40.7472C345.853 40.7472 346.314 41.3233 346.314 42.4757C346.314 44.281 344.643 47.6804 341.302 52.6739L338.882 56.3038Z" fill="#311569"/>
<path d="M322.23 44.6075C322.23 47.1427 321.193 49.3705 319.119 51.2911C317.083 53.2117 314.759 54.172 312.147 54.172C311.302 54.172 310.745 53.9799 310.476 53.5958C310.208 53.1733 310.073 52.6355 310.073 51.9825C310.073 51.3295 310.15 50.6957 310.304 50.0811C308.921 50.5421 307.384 51.2527 305.694 52.213C304.004 53.1733 301.93 54.5945 299.472 56.4767C297.013 58.3588 295.784 59.7608 295.784 60.6827C295.784 60.99 296.226 61.1436 297.109 61.1436C298.031 61.1436 299.433 60.8364 301.315 60.2218C303.197 59.5688 304.503 59.2423 305.233 59.2423C306.002 59.2423 306.501 59.2807 306.731 59.3575C307.231 59.6264 307.768 60.2218 308.345 61.1436C308.921 62.0271 309.209 62.7377 309.209 63.2755C309.209 63.7748 308.71 64.447 307.711 65.2921C306.712 66.1371 305.579 66.7901 304.311 67.2511C303.044 67.6736 302.199 68.0001 301.776 68.2306C293.671 72.7631 289.619 75.8744 289.619 77.5645C289.619 80.5606 292.173 82.0587 297.282 82.0587C300.547 82.0587 303.831 81.0216 307.135 78.9474C309.939 77.1804 312.455 75.3943 314.682 73.589C316.949 71.7452 318.37 70.6121 318.946 70.1895C319.561 69.767 320.022 69.5558 320.329 69.5558C321.328 69.5558 321.827 70.6697 321.827 72.8976C321.827 75.1254 321.693 76.6043 321.424 77.3341C321.155 78.0255 320.387 78.8897 319.119 79.9268C310.899 86.6104 303.121 89.9522 295.784 89.9522C291.866 89.9522 288.736 89.4145 286.392 88.339C282.09 86.38 279.939 83.3839 279.939 79.3507C279.939 74.0499 283.608 70.0359 290.944 67.3087C289.485 66.6557 288.543 65.8298 288.121 64.8311C287.698 63.794 287.487 62.1616 287.487 59.9337C287.487 57.6674 288.524 55.2859 290.599 52.7892C292.711 50.254 295.285 48.1798 298.319 46.5665C305.08 42.9174 311.11 41.0929 316.411 41.0929C317.679 41.0929 318.965 41.4002 320.271 42.0147C321.577 42.6293 322.23 43.4936 322.23 44.6075Z" fill="#311569"/>
<path d="M210.799 88.0509L207.975 87.9356H206.938C206.554 87.8204 206.151 87.5899 205.728 87.2442C205.267 86.8985 204.922 86.6489 204.691 86.4952C204.461 86.3416 204.346 86.0727 204.346 85.6886C204.346 85.266 204.499 84.5554 204.807 83.5567C212.297 67.0782 219.537 53.9031 226.528 44.0313C227.296 42.9558 228.526 42.1492 230.216 41.6114C231.944 41.0352 233.615 40.7472 235.228 40.7472C236.189 40.7472 236.669 41.4962 236.669 42.9942C236.669 43.4168 236.515 43.9929 236.208 44.7227C235.901 45.4142 235.132 46.5665 233.903 48.1798C232.674 49.7931 231.214 51.6368 229.524 53.711C227.834 55.7852 226.874 56.976 226.643 57.2833C231.906 51.8289 236.65 47.7765 240.875 45.1261C245.139 42.4373 248.211 41.0929 250.094 41.0929C252.014 41.0929 253.474 41.6498 254.473 42.7638C255.51 43.8393 256.028 45.0108 256.028 46.2784C256.028 47.5076 255.932 48.5447 255.74 49.3897C255.586 50.1964 255.279 51.0606 254.818 51.9825C254.357 52.866 253.954 53.6342 253.608 54.2872C253.301 54.9018 252.763 55.7276 251.995 56.7647C251.227 57.7634 250.689 58.4548 250.382 58.839C250.113 59.2231 249.517 59.9529 248.596 61.0284C247.712 62.1039 247.232 62.6993 247.155 62.8145C248.231 61.739 249.729 60.1449 251.649 58.0323C253.57 55.9197 255.183 54.1528 256.489 52.7315C257.834 51.3103 259.504 49.7162 261.502 47.9493C263.499 46.144 265.362 44.6843 267.091 43.5704C271.239 40.9584 275.445 39.6524 279.709 39.6524C281.168 39.6524 282.398 40.1134 283.396 41.0352C284.395 41.9571 284.894 43.0711 284.894 44.377C284.894 45.6446 283.339 48.7175 280.227 53.5958C277.116 58.4356 274.005 63.3139 270.893 68.2306C267.821 73.1088 266.284 76.1817 266.284 77.4493C266.284 79.2162 266.611 80.2726 267.264 80.6183C267.917 80.9255 268.704 81.0408 269.626 80.964C270.548 80.8871 271.835 80.2918 273.486 79.1778C275.176 78.0639 276.674 76.9115 277.98 75.7208C280.093 73.8002 282.052 71.9373 283.857 70.1319C284.241 69.7862 284.664 69.6134 285.125 69.6134C285.855 69.6134 286.296 70.1703 286.45 71.2843C286.604 72.3982 286.681 73.5505 286.681 74.7413C286.681 75.9321 286.565 76.7579 286.335 77.2188C285.221 79.3699 282.763 82.0011 278.96 85.1124C275.157 88.2237 271.508 89.7794 268.013 89.7794C267.59 89.7794 267.283 89.7602 267.091 89.7218C263.134 89.3377 260.388 88.2621 258.851 86.4952C257.353 84.6899 256.604 82.558 256.604 80.0997C256.604 77.6414 257.43 74.6645 259.082 71.169C260.772 67.6736 262.616 64.5046 264.613 61.6622C266.611 58.8198 268.435 56.2654 270.087 53.9991C271.777 51.6944 272.622 50.4461 272.622 50.254C272.622 50.0619 272.468 49.9659 272.161 49.9659C270.97 49.9659 268.32 51.8865 264.21 55.7276C257.181 62.296 251.112 68.6339 246.003 74.7413C244.658 76.3546 241.47 80.4454 236.438 87.0138C235.862 87.782 234.94 88.1661 233.673 88.1661C232.444 88.1661 231.157 87.9356 229.812 87.4747C228.468 86.9754 227.796 86.3416 227.796 85.5733C227.796 85.1892 230.849 79.8116 236.957 69.4405C243.064 59.031 246.118 53.3653 246.118 52.4435C246.118 51.4832 245.542 51.003 244.39 51.003C243.276 51.003 240.952 52.6931 237.418 56.0733C227.7 65.3689 220.171 74.6069 214.832 83.7872C214.486 84.325 213.814 85.17 212.815 86.3224C211.817 87.4747 211.144 88.0509 210.799 88.0509Z" fill="#311569"/>
<path d="M139.008 88.0509L136.184 87.9356H135.147C134.763 87.8204 134.36 87.5899 133.937 87.2442C133.476 86.8985 133.131 86.6489 132.9 86.4952C132.67 86.3416 132.555 86.0727 132.555 85.6886C132.555 85.266 132.708 84.5554 133.016 83.5567C140.506 67.0782 147.746 53.9031 154.737 44.0313C155.505 42.9558 156.735 42.1492 158.425 41.6114C160.153 41.0352 161.824 40.7472 163.437 40.7472C164.398 40.7472 164.878 41.4962 164.878 42.9942C164.878 43.4168 164.724 43.9929 164.417 44.7227C164.11 45.4142 163.341 46.5665 162.112 48.1798C160.883 49.7931 159.423 51.6368 157.733 53.711C156.043 55.7852 155.083 56.976 154.852 57.2833C160.115 51.8289 164.859 47.7765 169.084 45.1261C173.348 42.4373 176.42 41.0929 178.303 41.0929C180.223 41.0929 181.683 41.6498 182.682 42.7638C183.719 43.8393 184.237 45.0108 184.237 46.2784C184.237 47.5076 184.141 48.5447 183.949 49.3897C183.795 50.1964 183.488 51.0606 183.027 51.9825C182.566 52.866 182.163 53.6342 181.817 54.2872C181.51 54.9018 180.972 55.7276 180.204 56.7647C179.436 57.7634 178.898 58.4548 178.591 58.839C178.322 59.2231 177.726 59.9529 176.805 61.0284C175.921 62.1039 175.441 62.6993 175.364 62.8145C176.44 61.739 177.938 60.1449 179.858 58.0323C181.779 55.9197 183.392 54.1528 184.698 52.7315C186.043 51.3103 187.713 49.7162 189.711 47.9493C191.708 46.144 193.571 44.6843 195.3 43.5704C199.448 40.9584 203.654 39.6524 207.918 39.6524C209.377 39.6524 210.607 40.1134 211.605 41.0352C212.604 41.9571 213.103 43.0711 213.103 44.377C213.103 45.6446 211.548 48.7175 208.436 53.5958C205.325 58.4356 202.214 63.3139 199.102 68.2306C196.029 73.1088 194.493 76.1817 194.493 77.4493C194.493 79.2162 194.82 80.2726 195.473 80.6183C196.126 80.9255 196.913 81.0408 197.835 80.964C198.757 80.8871 200.043 80.2918 201.695 79.1778C203.385 78.0639 204.883 76.9115 206.189 75.7208C208.302 73.8002 210.261 71.9373 212.066 70.1319C212.45 69.7862 212.873 69.6134 213.334 69.6134C214.064 69.6134 214.505 70.1703 214.659 71.2843C214.813 72.3982 214.89 73.5505 214.89 74.7413C214.89 75.9321 214.774 76.7579 214.544 77.2188C213.43 79.3699 210.972 82.0011 207.169 85.1124C203.366 88.2237 199.717 89.7794 196.222 89.7794C195.799 89.7794 195.492 89.7602 195.3 89.7218C191.343 89.3377 188.597 88.2621 187.06 86.4952C185.562 84.6899 184.813 82.558 184.813 80.0997C184.813 77.6414 185.639 74.6645 187.291 71.169C188.981 67.6736 190.825 64.5046 192.822 61.6622C194.82 58.8198 196.644 56.2654 198.296 53.9991C199.986 51.6944 200.831 50.4461 200.831 50.254C200.831 50.0619 200.677 49.9659 200.37 49.9659C199.179 49.9659 196.529 51.8865 192.419 55.7276C185.39 62.296 179.321 68.6339 174.212 74.7413C172.867 76.3546 169.679 80.4454 164.647 87.0138C164.071 87.782 163.149 88.1661 161.882 88.1661C160.653 88.1661 159.366 87.9356 158.021 87.4747C156.677 86.9754 156.005 86.3416 156.005 85.5733C156.005 85.1892 159.058 79.8116 165.166 69.4405C171.273 59.031 174.327 53.3653 174.327 52.4435C174.327 51.4832 173.751 51.003 172.599 51.003C171.485 51.003 169.161 52.6931 165.627 56.0733C155.909 65.3689 148.38 74.6069 143.041 83.7872C142.695 84.325 142.023 85.17 141.024 86.3224C140.026 87.4747 139.353 88.0509 139.008 88.0509Z" fill="#311569"/>
<path d="M134.917 43.9161C137.836 43.9161 139.296 44.9148 139.296 46.9122C139.296 47.9877 139.046 48.7752 138.547 49.2745C138.047 49.7739 136.972 51.4448 135.32 54.2872C133.707 57.0912 131.902 60.7019 129.904 65.1192C127.945 69.4981 126.678 73.2433 126.101 76.3546C125.986 76.7387 125.929 77.2765 125.929 77.9679C125.929 80.0805 126.505 81.1368 127.657 81.1368C128.809 81.1368 130.173 80.599 131.748 79.5235C133.323 78.4096 134.725 77.238 135.954 76.0089C137.183 74.7413 138.374 73.4545 139.526 72.1485C140.717 70.8425 141.428 70.0935 141.658 69.9015C141.889 69.7094 142.234 69.6134 142.695 69.6134C143.425 69.6134 143.867 70.1703 144.02 71.2843C144.174 72.3982 144.251 73.5505 144.251 74.7413C144.251 75.9321 144.136 76.7579 143.905 77.2188C142.791 79.4083 140.333 82.0395 136.53 85.1124C132.766 88.1853 129.328 89.7218 126.217 89.7218C123.144 89.7218 120.877 88.7807 119.418 86.8985C117.958 85.0164 117.228 82.9422 117.228 80.6759C117.228 78.3712 117.613 76.3546 118.381 74.6261C115.193 78.7745 111.524 82.2892 107.376 85.17C103.266 88.0509 99.9048 89.4913 97.2928 89.4913C94.6809 89.4913 92.549 88.7039 90.8973 87.129C88.7847 85.17 87.7284 82.462 87.7284 79.005C87.7284 75.5095 88.4966 72.0141 90.0331 68.5186C91.608 64.9848 93.663 61.7774 96.1981 58.8966C98.7333 55.9773 101.518 53.3269 104.553 50.9454C110.929 45.9519 116.806 43.4552 122.183 43.4552C124.258 43.4552 125.948 43.8009 127.254 44.4923C128.56 45.1837 129.386 46.0479 129.731 47.0851C130.653 45.7022 131.421 44.838 132.036 44.4923C132.689 44.1082 133.649 43.9161 134.917 43.9161ZM127.254 50.3116C120.685 50.3116 113.887 53.9607 106.857 61.2589C104.361 63.8709 102.056 67.0014 99.9432 70.6505C97.869 74.2996 96.8319 76.7963 96.8319 78.1407C96.8319 79.4851 97.216 80.1573 97.9843 80.1573C99.0598 80.1573 102.056 78.0447 106.973 73.8194C111.889 69.5558 115.154 66.4252 116.767 64.4278C118.534 62.2 122.03 57.4946 127.254 50.3116Z" fill="#311569"/>
<path d="M72.5419 56.3038C81.607 46.0095 89.3277 40.8624 95.704 40.8624C97.2789 40.8624 98.5656 41.3425 99.5643 42.3028C100.601 43.2247 101.12 44.4347 101.12 45.9327C101.12 47.4308 100.044 49.9467 97.8934 53.4806C95.7808 56.976 93.8218 59.9337 92.0165 62.3536C91.0562 63.5828 89.9615 64.1974 88.7323 64.1974C87.5415 64.1974 86.6005 63.7556 85.9091 62.8722C85.2561 61.9887 84.9296 60.9516 84.9296 59.7608C84.9296 57.1104 86.3508 54.1143 89.1932 50.7726L89.078 50.6573C87.8104 50.7726 84.6607 53.2693 79.6288 58.1476C74.6353 63.0258 70.3716 67.4047 66.8378 71.2843C63.3423 75.1254 59.5396 79.8116 55.4296 85.3429C54.2388 86.9946 53.2209 87.8204 52.3759 87.8204C51.5692 87.8204 50.4937 87.5707 49.1493 87.0714C47.7665 86.5336 46.9406 86.1495 46.6718 85.919C46.3645 85.6886 46.2108 85.3045 46.2108 84.7667C46.2108 84.2289 46.3645 83.6143 46.6718 82.9229C46.979 82.1931 47.5552 81.1752 48.4003 79.8692C49.2069 78.5632 50.4361 76.4506 52.0878 73.5313C53.7779 70.6121 56.3899 66.1948 59.9237 60.2794C63.4576 54.364 65.5702 50.7918 66.2616 49.5626C67.7212 47.0274 68.912 45.1837 69.8339 44.0313C71.5624 41.8419 74.4816 40.7472 78.5917 40.7472C79.5135 40.7472 79.9745 41.3233 79.9745 42.4757C79.9745 44.281 78.3036 47.6804 74.9618 52.6739L72.5419 56.3038Z" fill="#311569"/>
<path d="M22.1844 49.4474C25.9104 46.8738 29.5594 44.8956 33.1317 43.5128C36.704 42.13 39.7961 41.4386 42.4081 41.4386C45.0201 41.4386 46.691 42.1876 47.4208 43.6856C48.9188 41.9571 50.7818 41.0352 53.0096 40.92C53.6626 40.8816 54.4693 40.8624 55.4296 40.8624C56.3899 40.8624 56.9852 40.9968 57.2157 41.2657C57.4462 41.4962 57.6574 41.9571 57.8495 42.6485C58.0415 43.3399 58.1568 43.724 58.1952 43.8009C58.2336 43.8777 58.2528 44.0121 58.2528 44.2042C58.2528 44.3578 58.1568 44.5691 57.9647 44.838C57.7727 45.0685 57.5422 45.2989 57.2733 45.5294C57.0428 45.7599 56.9084 45.8943 56.87 45.9327C48.3811 58.1091 39.7001 71.9949 30.827 87.5899C39.969 79.4851 48.1506 73.6658 55.3719 70.1319C55.8329 69.9015 56.2746 69.7862 56.6971 69.7862C57.3117 69.7862 57.715 70.1895 57.9071 70.9962C58.0992 71.7644 58.1952 72.8783 58.1952 74.338C58.1952 75.7976 58.0992 76.7003 57.9071 77.046C57.7535 77.3917 56.87 78.0831 55.2567 79.1202C53.6434 80.1573 51.55 81.5017 48.9764 83.1534C46.4029 84.8051 43.6757 86.6297 40.7948 88.627C33.8807 93.4285 28.1958 98.4796 23.7401 103.78C17.9784 110.733 13.8492 116.341 11.3524 120.605C10.4305 122.256 8.87488 123.082 6.68542 123.082C2.34493 123.082 0.174683 121.027 0.174683 116.917C0.174683 112.73 2.2297 108.447 6.33972 104.068C9.41264 100.803 12.2359 98.1339 14.8094 96.0597C17.383 93.9854 18.785 92.8139 19.0155 92.545C21.858 88.2813 25.7183 82.2315 30.5966 74.3956C26.4481 78.7361 22.4149 82.1931 18.4969 84.7667C14.6174 87.3403 11.7173 88.627 9.79675 88.627C3.9198 88.627 0.981323 86.1111 0.981323 81.0792C0.981323 77.0844 1.99923 73.0512 4.03503 68.9796C6.07084 64.908 8.68282 61.2781 11.871 58.0899C15.0591 54.8634 18.4969 51.9825 22.1844 49.4474ZM44.1366 47.9493C39.6809 48.9096 35.494 50.5037 31.576 52.7315C27.6581 54.921 24.4315 57.2833 21.8964 59.8185C19.3612 62.3152 17.1718 64.8888 15.328 67.5392C11.871 72.4942 10.1425 76.3354 10.1425 79.0626C10.1425 79.7156 10.2961 80.0421 10.6034 80.0421C10.9491 80.0421 11.6789 79.6964 12.7928 79.005C13.9452 78.3136 15.5585 77.142 17.6327 75.4903C19.7069 73.8002 22.0116 71.8028 24.5468 69.4981C30.4237 64.0821 36.9537 56.8992 44.1366 47.9493Z" fill="#311569"/>
</svg>
