<svg width="249" height="79" viewBox="0 0 249 79" fill="none" xmlns="http://www.w3.org/2000/svg">
<g clip-path="url(#clip0_735_1326)">
<path opacity="0.27" d="M39.3368 77.5779C34.3517 78.9058 29.2348 75.9359 27.9085 70.9448L14.702 13.0881C13.3757 8.09711 16.3421 2.97412 21.3272 1.64625C26.3123 0.318375 31.4292 3.28828 32.7555 8.27932L45.9599 66.1381C47.2862 71.1291 44.3198 76.2521 39.3347 77.58L39.3368 77.5779Z" fill="#7230ED"/>
<mask id="mask0_735_1326" style="mask-type:luminance" maskUnits="userSpaceOnUse" x="0" y="1" width="34" height="78">
<path d="M26.1016 1.54568L25.3646 1.37126C20.5478 0.231274 15.72 3.21654 14.5814 8.03903L0.668892 66.9631C-0.469742 71.7856 2.51197 76.6191 7.32874 77.7591L8.06571 77.9335C12.8825 79.0735 17.7103 76.0883 18.8489 71.2658L32.7614 12.3417C33.9 7.51923 30.9183 2.68568 26.1016 1.54568Z" fill="white"/>
</mask>
<g mask="url(#mask0_735_1326)">
<path d="M-0.424316 72.9827L17.7421 77.712L17.3991 79.0356H-0.424316V72.9827Z" fill="white"/>
<path d="M-0.424316 72.5952L17.8363 77.3496L17.7421 77.7119L-0.424316 72.9827V72.5952Z" fill="white"/>
<path d="M-0.424316 72.2098L17.9304 76.9872L17.8363 77.3496L-0.424316 72.5952V72.2098Z" fill="#FDFDFF"/>
<path d="M-0.424316 71.8224L18.0245 76.6249L17.9304 76.9873L-0.424316 72.2099V71.8224Z" fill="#FCFCFF"/>
<path d="M-0.424316 71.437L18.1187 76.2647L18.0245 76.6249L-0.424316 71.8224V71.437Z" fill="#FCFBFF"/>
<path d="M-0.424316 71.0496L18.2128 75.9024L18.1187 76.2647L-0.424316 71.437V71.0496Z" fill="#FBFAFD"/>
<path d="M-0.424316 70.6642L18.307 75.54L18.2128 75.9024L-0.424316 71.0496V70.6642Z" fill="#FAF9FD"/>
<path d="M-0.424316 70.2788L18.4011 75.1777L18.307 75.54L-0.424316 70.6642V70.2788Z" fill="#F9F8FD"/>
<path d="M-0.424316 69.8913L18.4952 74.8174L18.4011 75.1776L-0.424316 70.2788V69.8913Z" fill="#FAF7FF"/>
<path d="M-0.424316 69.5059L18.5894 74.4551L18.4952 74.8174L-0.424316 69.8913V69.5059Z" fill="#F9F6FF"/>
<path d="M-0.424316 69.1185L18.6835 74.0928L18.5894 74.4551L-0.424316 69.5059V69.1185Z" fill="#F8F5FF"/>
<path d="M-0.424316 68.7331L18.7776 73.7304L18.6835 74.0928L-0.424316 69.1185V68.7331Z" fill="#F7F4FF"/>
<path d="M-0.424316 68.3456L18.8697 73.3681L18.7776 73.7304L-0.424316 68.7331V68.3456Z" fill="#F6F3FF"/>
<path d="M-0.424316 67.9603L18.9638 73.0079L18.8697 73.3681L-0.424316 68.3456V67.9603Z" fill="#F6F2FD"/>
<path d="M-0.424316 67.5728L19.058 72.6455L18.9638 73.0078L-0.424316 67.9602V67.5728Z" fill="#F5F1FD"/>
<path d="M-0.424316 67.1874L19.1521 72.2831L19.058 72.6455L-0.424316 67.5728V67.1874Z" fill="#F4F0FD"/>
<path d="M-0.424316 66.7999L19.2462 71.9208L19.1521 72.2832L-0.424316 67.1874V66.7999Z" fill="#F3EFFD"/>
<path d="M-0.424316 66.4146L19.3404 71.5585L19.2462 71.9208L-0.424316 66.7999V66.4146Z" fill="#F2EEFD"/>
<path d="M-0.424316 66.0271L19.4345 71.1983L19.3404 71.5585L-0.424316 66.4146V66.0271Z" fill="#F2EDFD"/>
<path d="M-0.424316 65.6417L19.5287 70.8359L19.4345 71.1983L-0.424316 66.0271V65.6417Z" fill="#F1ECFD"/>
<path d="M-0.424316 65.2543L19.6228 70.4736L19.5287 70.8359L-0.424316 65.6417V65.2543Z" fill="#F0EBFC"/>
<path d="M-0.424316 64.8688L19.7169 70.1112L19.6228 70.4735L-0.424316 65.2542V64.8688Z" fill="#EFEAFD"/>
<path d="M-0.424316 64.4835L19.8111 69.751L19.7169 70.1113L-0.424316 64.8689V64.4835Z" fill="#EFE8FD"/>
<path d="M-0.424316 64.096L19.9052 69.3886L19.8111 69.751L-0.424316 64.4835V64.096Z" fill="#EEE7FD"/>
<path d="M-0.424316 63.7106L19.9993 69.0263L19.9052 69.3886L-0.424316 64.096V63.7106Z" fill="#EDE6FD"/>
<path d="M-0.424316 63.6667L-0.340639 63.3441L20.0914 68.664L19.9993 69.0263L-0.424316 63.7106V63.6667Z" fill="#ECE5FD"/>
<path d="M-0.245644 62.9779L-0.339844 63.3408L20.0931 68.658L20.1873 68.2952L-0.245644 62.9779Z" fill="#EBE4FD"/>
<path d="M-0.151894 62.6154L-0.246094 62.9783L20.1869 68.2956L20.2811 67.9327L-0.151894 62.6154Z" fill="#ECE3FC"/>
<path d="M-0.058144 62.2529L-0.152344 62.6158L20.2806 67.9331L20.3748 67.5702L-0.058144 62.2529Z" fill="#EBE2FC"/>
<path d="M0.0336529 61.8904L-0.0605469 62.2533L20.3724 67.5706L20.4666 67.2077L0.0336529 61.8904Z" fill="#EAE1FC"/>
<path d="M0.129844 61.5284L0.0356445 61.8913L20.4686 67.2086L20.5628 66.8457L0.129844 61.5284Z" fill="#E9E0FC"/>
<path d="M0.223106 61.1701L0.128906 61.533L20.5619 66.8502L20.6561 66.4874L0.223106 61.1701Z" fill="#E9DFFC"/>
<path d="M0.316856 60.8076L0.222656 61.1705L20.6556 66.4878L20.7498 66.1249L0.316856 60.8076Z" fill="#E8DEFC"/>
<path d="M0.411094 60.4451L0.316895 60.808L20.7499 66.1253L20.8441 65.7624L0.411094 60.4451Z" fill="#E7DDFC"/>
<path d="M0.504844 60.0826L0.410645 60.4455L20.8436 65.7628L20.9378 65.3999L0.504844 60.0826Z" fill="#E6DCFD"/>
<path d="M0.600547 59.7206L0.506348 60.0835L20.9393 65.4008L21.0335 65.0379L0.600547 59.7206Z" fill="#E5DBFC"/>
<path d="M0.692344 59.3582L0.598145 59.721L21.0311 65.0383L21.1253 64.6754L0.692344 59.3582Z" fill="#E5DAFC"/>
<path d="M0.786583 58.9977L0.692383 59.3606L21.1254 64.6779L21.2196 64.315L0.786583 58.9977Z" fill="#E4D9FC"/>
<path d="M0.880333 58.6353L0.786133 58.9981L21.2191 64.3154L21.3133 63.9525L0.880333 58.6353Z" fill="#E3D8FC"/>
<path d="M0.974082 58.2728L0.879883 58.6356L21.3128 63.9529L21.407 63.5901L0.974082 58.2728Z" fill="#E2D7FC"/>
<path d="M1.07027 57.9108L0.976074 58.2737L21.409 63.591L21.5032 63.2281L1.07027 57.9108Z" fill="#E1D6FC"/>
<path d="M1.16402 57.5483L1.06982 57.9112L21.5028 63.2285L21.597 62.8656L1.16402 57.5483Z" fill="#E1D5FC"/>
<path d="M1.25777 57.1879L1.16357 57.5508L21.5965 62.8681L21.6907 62.5052L1.25777 57.1879Z" fill="#E0D4FB"/>
<path d="M1.34957 56.8254L1.25537 57.1883L21.6883 62.5056L21.7825 62.1427L1.34957 56.8254Z" fill="#DFD3FB"/>
<path d="M1.44576 56.4635L1.35156 56.8264L21.7845 62.1436L21.8787 61.7808L1.44576 56.4635Z" fill="#DED2FB"/>
<path d="M1.53902 56.103L1.44482 56.4659L21.8778 61.7832L21.972 61.4203L1.53902 56.103Z" fill="#DFD1FB"/>
<path d="M1.63277 55.7405L1.53857 56.1034L21.9715 61.4207L22.0657 61.0578L1.63277 55.7405Z" fill="#DED0FB"/>
<path d="M1.72701 55.3781L1.63281 55.7409L22.0658 61.0582L22.16 60.6953L1.72701 55.3781Z" fill="#DDCFFB"/>
<path d="M1.82076 55.0176L1.72656 55.3805L22.1595 60.6978L22.2537 60.3349L1.82076 55.0176Z" fill="#DCCEFB"/>
<path d="M1.91451 54.6557L1.82031 55.0186L22.2533 60.3358L22.3475 59.973L1.91451 54.6557Z" fill="#DBCDFC"/>
<path d="M2.00826 54.2932L1.91406 54.6561L22.347 59.9734L22.4412 59.6105L2.00826 54.2932Z" fill="#DBCCFB"/>
<path d="M2.1025 53.9307L2.0083 54.2936L22.4413 59.6109L22.5355 59.248L2.1025 53.9307Z" fill="#DACBFB"/>
<path d="M2.19625 53.5682L2.10205 53.931L22.535 59.2483L22.6292 58.8855L2.19625 53.5682Z" fill="#D9CAFB"/>
<path d="M2.29 53.2058L2.1958 53.5686L22.6288 58.8859L22.723 58.523L2.29 53.2058Z" fill="#D8C9FB"/>
<path d="M2.38619 52.8458L2.29199 53.2087L22.725 58.526L22.8192 58.1631L2.38619 52.8458Z" fill="#D8C8FB"/>
<path d="M2.47994 52.4833L2.38574 52.8462L22.8187 58.1635L22.9129 57.8006L2.47994 52.4833Z" fill="#D7C6FB"/>
<path d="M2.57174 52.1209L2.47754 52.4837L22.9105 57.801L23.0047 57.4381L2.57174 52.1209Z" fill="#D6C5FB"/>
<path d="M2.66549 51.7584L2.57129 52.1212L23.0043 57.4385L23.0985 57.0757L2.66549 51.7584Z" fill="#D5C4FA"/>
<path d="M2.76119 51.3984L2.66699 51.7613L23.1 57.0786L23.1942 56.7157L2.76119 51.3984Z" fill="#D4C3FA"/>
<path d="M2.85494 51.038L2.76074 51.4009L23.1937 56.7182L23.2879 56.3553L2.85494 51.038Z" fill="#D4C2FA"/>
<path d="M2.94869 50.6755L2.85449 51.0384L23.2875 56.3557L23.3817 55.9928L2.94869 50.6755Z" fill="#D3C1FA"/>
<path d="M3.04293 50.3131L2.94873 50.6759L23.3817 55.9932L23.4759 55.6303L3.04293 50.3131Z" fill="#D2C0FA"/>
<path d="M3.13473 49.9506L3.04053 50.3134L23.4735 55.6307L23.5677 55.2679L3.13473 49.9506Z" fill="#D1BFFA"/>
<path d="M3.23043 49.5886L3.13623 49.9515L23.5692 55.2688L23.6634 54.9059L3.23043 49.5886Z" fill="#D0BEFA"/>
<path d="M3.32418 49.2261L3.22998 49.589L23.6629 54.9063L23.7571 54.5434L3.32418 49.2261Z" fill="#D1BDFA"/>
<path d="M3.41842 48.8657L3.32422 49.2286L23.7572 54.5459L23.8514 54.183L3.41842 48.8657Z" fill="#D0BCF9"/>
<path d="M3.51217 48.5032L3.41797 48.8661L23.8509 54.1834L23.9451 53.8205L3.51217 48.5032Z" fill="#CFBBFA"/>
<path d="M3.60592 48.1408L3.51172 48.5036L23.9447 53.8209L24.0389 53.458L3.60592 48.1408Z" fill="#CEBAFA"/>
<path d="M3.70211 47.7788L3.60791 48.1416L24.0409 53.4589L24.1351 53.096L3.70211 47.7788Z" fill="#CEB9FA"/>
<path d="M3.79391 47.4163L3.69971 47.7792L24.1327 53.0965L24.2269 52.7336L3.79391 47.4163Z" fill="#CDB8FA"/>
<path d="M3.88766 47.0538L3.79346 47.4166L24.2264 52.7339L24.3206 52.3711L3.88766 47.0538Z" fill="#CCB7FA"/>
<path d="M3.98141 46.6934L3.88721 47.0563L24.3202 52.3736L24.4144 52.0107L3.98141 46.6934Z" fill="#CBB6FA"/>
<path d="M4.07711 46.3334L3.98291 46.6963L24.4159 52.0136L24.5101 51.6507L4.07711 46.3334Z" fill="#CAB5F9"/>
<path d="M4.17086 45.971L4.07666 46.3339L24.5096 51.6512L24.6038 51.2883L4.17086 45.971Z" fill="#CAB4F9"/>
<path d="M4.26461 45.6085L4.17041 45.9713L24.6034 51.2886L24.6976 50.9258L4.26461 45.6085Z" fill="#C9B3F9"/>
<path d="M4.35641 45.246L4.26221 45.6088L24.6952 50.9261L24.7894 50.5633L4.35641 45.246Z" fill="#C8B2F9"/>
<path d="M4.45065 44.8835L4.35645 45.2463L24.7894 50.5636L24.8836 50.2008L4.45065 44.8835Z" fill="#C7B1F9"/>
<path d="M4.54635 44.5236L4.45215 44.8865L24.8851 50.2038L24.9793 49.8409L4.54635 44.5236Z" fill="#C7B0F9"/>
<path d="M4.6401 44.1611L4.5459 44.524L24.9789 49.8413L25.0731 49.4784L4.6401 44.1611Z" fill="#C6AFF9"/>
<path d="M4.73434 43.7987L4.64014 44.1615L25.0731 49.4788L25.1673 49.1159L4.73434 43.7987Z" fill="#C5AEF8"/>
<path d="M4.82809 43.4362L4.73389 43.799L25.1669 49.1163L25.2611 48.7535L4.82809 43.4362Z" fill="#C4ADF8"/>
<path d="M4.92184 43.0737L4.82764 43.4365L25.2606 48.7538L25.3548 48.391L4.92184 43.0737Z" fill="#C3ACF8"/>
<path d="M5.01559 42.7138L4.92139 43.0767L25.3544 48.3939L25.4486 48.0311L5.01559 42.7138Z" fill="#C4ABF8"/>
<path d="M5.10982 42.3513L5.01562 42.7142L25.4486 48.0315L25.5428 47.6686L5.10982 42.3513Z" fill="#C3AAF8"/>
<path d="M5.20357 41.9888L5.10938 42.3517L25.5423 47.669L25.6365 47.3061L5.20357 41.9888Z" fill="#C2A9F9"/>
<path d="M5.29684 41.6284L5.20264 41.9912L25.6356 47.3085L25.7298 46.9457L5.29684 41.6284Z" fill="#C1A7F9"/>
<path d="M5.39303 41.2664L5.29883 41.6293L25.7318 46.9466L25.826 46.5837L5.39303 41.2664Z" fill="#C0A6F9"/>
<path d="M5.48678 40.9039L5.39258 41.2668L25.8255 46.5841L25.9197 46.2212L5.48678 40.9039Z" fill="#C0A5F8"/>
<path d="M5.57857 40.5435L5.48438 40.9064L25.9173 46.2237L26.0115 45.8608L5.57857 40.5435Z" fill="#BFA4F8"/>
<path d="M5.67232 40.181L5.57812 40.5439L26.0111 45.8612L26.1053 45.4983L5.67232 40.181Z" fill="#BEA3F8"/>
<path d="M5.76607 39.8185L5.67188 40.1814L26.1048 45.4987L26.199 45.1358L5.76607 39.8185Z" fill="#BDA2F8"/>
<path d="M5.86227 39.4565L5.76807 39.8194L26.201 45.1367L26.2952 44.7738L5.86227 39.4565Z" fill="#BDA1F8"/>
<path d="M5.95602 39.0941L5.86182 39.4569L26.2948 44.7742L26.389 44.4114L5.95602 39.0941Z" fill="#BCA0F8"/>
<path d="M6.05025 38.7316L5.95605 39.0944L26.389 44.4117L26.4832 44.0489L6.05025 38.7316Z" fill="#BB9FF8"/>
<path d="M6.144 38.3712L6.0498 38.7341L26.4828 44.0514L26.577 43.6885L6.144 38.3712Z" fill="#BA9EF7"/>
<path d="M6.2358 38.0087L6.1416 38.3715L26.5746 43.6888L26.6688 43.326L6.2358 38.0087Z" fill="#B99DF7"/>
<path d="M6.3315 37.6467L6.2373 38.0096L26.6703 43.3269L26.7645 42.964L6.3315 37.6467Z" fill="#B99CF7"/>
<path d="M6.42574 37.2842L6.33154 37.6471L26.7645 42.9644L26.8587 42.6015L6.42574 37.2842Z" fill="#B89BF7"/>
<path d="M6.51949 36.9218L6.42529 37.2846L26.8583 42.6019L26.9525 42.239L6.51949 36.9218Z" fill="#B799F7"/>
<path d="M6.61275 36.5634L6.51855 36.9262L26.9515 42.2435L27.0457 41.8807L6.61275 36.5634Z" fill="#B698F7"/>
<path d="M6.70895 36.2014L6.61475 36.5643L27.0477 41.8816L27.1419 41.5187L6.70895 36.2014Z" fill="#B797F7"/>
<path d="M6.80074 35.8389L6.70654 36.2018L27.1395 41.5191L27.2337 41.1562L6.80074 35.8389Z" fill="#B696F7"/>
<path d="M6.89449 35.4764L6.80029 35.8393L27.2333 41.1566L27.3275 40.7937L6.89449 35.4764Z" fill="#B595F6"/>
<path d="M6.98824 35.114L6.89404 35.4768L27.327 40.7941L27.4212 40.4312L6.98824 35.114Z" fill="#B494F6"/>
<path d="M7.08199 34.7515L6.98779 35.1143L27.4208 40.4316L27.515 40.0688L7.08199 34.7515Z" fill="#B393F6"/>
<path d="M7.17818 34.3916L7.08398 34.7545L27.517 40.0717L27.6112 39.7089L7.17818 34.3916Z" fill="#B392F7"/>
<path d="M7.27193 34.0291L7.17773 34.392L27.6107 39.7093L27.7049 39.3464L7.27193 34.0291Z" fill="#B290F7"/>
<path d="M7.36568 33.6666L7.27148 34.0295L27.7045 39.3468L27.7987 38.9839L7.36568 33.6666Z" fill="#B18FF7"/>
<path d="M7.45748 33.3041L7.36328 33.667L27.7963 38.9843L27.8905 38.6214L7.45748 33.3041Z" fill="#B08EF7"/>
<path d="M7.55172 32.9416L7.45752 33.3044L27.8905 38.6217L27.9847 38.2589L7.55172 32.9416Z" fill="#B08DF6"/>
<path d="M7.64742 32.5797L7.55322 32.9425L27.9862 38.2598L28.0804 37.8969L7.64742 32.5797Z" fill="#AF8CF6"/>
<path d="M7.74166 32.2192L7.64746 32.5821L28.0804 37.8994L28.1746 37.5365L7.74166 32.2192Z" fill="#AE8BF6"/>
<path d="M7.83492 31.8588L7.74072 32.2217L28.1737 37.539L28.2679 37.1761L7.83492 31.8588Z" fill="#AD8AF6"/>
<path d="M7.92867 31.4963L7.83447 31.8592L28.2674 37.1765L28.3616 36.8136L7.92867 31.4963Z" fill="#AC89F6"/>
<path d="M8.02242 31.1343L7.92822 31.4972L28.3612 36.8145L28.4554 36.4516L8.02242 31.1343Z" fill="#AC88F6"/>
<path d="M8.11617 30.7719L8.02197 31.1347L28.4549 36.452L28.5491 36.0891L8.11617 30.7719Z" fill="#AB87F6"/>
<path d="M8.21041 30.4114L8.11621 30.7743L28.5492 36.0916L28.6434 35.7287L8.21041 30.4114Z" fill="#AA86F6"/>
<path d="M8.30416 30.049L8.20996 30.4118L28.6429 35.7291L28.7371 35.3662L8.30416 30.049Z" fill="#A985F5"/>
<path d="M8.39791 29.6865L8.30371 30.0493L28.7367 35.3666L28.8309 35.0038L8.39791 29.6865Z" fill="#A884F5"/>
<path d="M8.4941 29.3245L8.3999 29.6874L28.8329 35.0047L28.9271 34.6418L8.4941 29.3245Z" fill="#A983F5"/>
<path d="M8.58785 28.962L8.49365 29.3249L28.9266 34.6422L29.0208 34.2793L8.58785 28.962Z" fill="#A882F5"/>
<path d="M8.67965 28.5996L8.58545 28.9624L29.0184 34.2797L29.1126 33.9168L8.67965 28.5996Z" fill="#A781F5"/>
<path d="M8.7734 28.2391L8.6792 28.602L29.1122 33.9193L29.2064 33.5564L8.7734 28.2391Z" fill="#A680F5"/>
<path d="M8.86764 27.8767L8.77344 28.2395L29.2064 33.5568L29.3006 33.1939L8.86764 27.8767Z" fill="#A680F5"/>
<path d="M8.96334 27.5147L8.86914 27.8776L29.3021 33.1949L29.3963 32.832L8.96334 27.5147Z" fill="#A57FF4"/>
<path d="M9.05709 27.1522L8.96289 27.5151L29.3959 32.8324L29.4901 32.4695L9.05709 27.1522Z" fill="#A47EF4"/>
<path d="M9.15084 26.7918L9.05664 27.1546L29.4896 32.4719L29.5838 32.109L9.15084 26.7918Z" fill="#A37CF4"/>
<path d="M9.24264 26.4293L9.14844 26.7921L29.5814 32.1094L29.6756 31.7466L9.24264 26.4293Z" fill="#A27BF4"/>
<path d="M9.33834 26.0694L9.24414 26.4323L29.6771 31.7495L29.7713 31.3867L9.33834 26.0694Z" fill="#A27AF4"/>
<path d="M9.43209 25.7069L9.33789 26.0697L29.7709 31.387L29.8651 31.0241L9.43209 25.7069Z" fill="#A179F4"/>
<path d="M9.52633 25.3444L9.43213 25.7072L29.8651 31.0245L29.9593 30.6617L9.52633 25.3444Z" fill="#A078F5"/>
<path d="M9.62008 24.9819L9.52588 25.3447L29.9588 30.662L30.053 30.2992L9.62008 24.9819Z" fill="#9F77F4"/>
<path d="M9.71383 24.6194L9.61963 24.9822L30.0526 30.2995L30.1468 29.9367L9.71383 24.6194Z" fill="#9F76F4"/>
<path d="M9.81002 24.2575L9.71582 24.6203L30.1488 29.9376L30.243 29.5747L9.81002 24.2575Z" fill="#9E75F4"/>
<path d="M9.90182 23.897L9.80762 24.2599L30.2406 29.5772L30.3348 29.2143L9.90182 23.897Z" fill="#9D74F4"/>
<path d="M9.99557 23.5346L9.90137 23.8974L30.3343 29.2147L30.4285 28.8518L9.99557 23.5346Z" fill="#9C73F4"/>
<path d="M10.0893 23.1721L9.99512 23.5349L30.4281 28.8522L30.5223 28.4894L10.0893 23.1721Z" fill="#9B72F4"/>
<path d="M10.1836 22.8096L10.0894 23.1724L30.5223 28.4897L30.6165 28.1269L10.1836 22.8096Z" fill="#9B71F4"/>
<path d="M10.2793 22.4476L10.1851 22.8105L30.618 28.1278L30.7122 27.7649L10.2793 22.4476Z" fill="#9A70F4"/>
<path d="M10.3725 22.0892L10.2783 22.4521L30.7113 27.7694L30.8055 27.4065L10.3725 22.0892Z" fill="#996FF3"/>
<path d="M10.4643 21.7268L10.3701 22.0896L30.8031 27.4069L30.8973 27.044L10.4643 21.7268Z" fill="#986EF3"/>
<path d="M10.5586 21.3643L10.4644 21.7271L30.8973 27.0444L30.9915 26.6816L10.5586 21.3643Z" fill="#976DF3"/>
<path d="M10.6543 21.0023L10.5601 21.3652L30.993 26.6825L31.0872 26.3196L10.6543 21.0023Z" fill="#986BF3"/>
<path d="M10.748 20.6398L10.6538 21.0027L31.0868 26.32L31.181 25.9571L10.748 20.6398Z" fill="#976AF3"/>
<path d="M10.8422 20.2774L10.748 20.6402L31.181 25.9575L31.2752 25.5946L10.8422 20.2774Z" fill="#9669F3"/>
<path d="M10.936 19.9169L10.8418 20.2798L31.2748 25.5971L31.369 25.2342L10.936 19.9169Z" fill="#9568F3"/>
<path d="M11.0297 19.5544L10.9355 19.9173L31.3685 25.2346L31.4627 24.8717L11.0297 19.5544Z" fill="#9567F2"/>
<path d="M11.1235 19.1925L11.0293 19.5553L31.4623 24.8726L31.5565 24.5097L11.1235 19.1925Z" fill="#9466F2"/>
<path d="M11.2177 18.83L11.1235 19.1928L31.5565 24.5101L31.6507 24.1473L11.2177 18.83Z" fill="#9365F2"/>
<path d="M11.3115 18.4675L11.2173 18.8303L31.6503 24.1476L31.7445 23.7848L11.3115 18.4675Z" fill="#9264F2"/>
<path d="M11.4052 18.105L11.311 18.4678L31.744 23.7851L31.8382 23.4223L11.4052 18.105Z" fill="#9163F2"/>
<path d="M11.4995 17.7446L11.4053 18.1074L31.8382 23.4247L31.9324 23.0619L11.4995 17.7446Z" fill="#9162F2"/>
<path d="M11.5952 17.3826L11.501 17.7455L31.9339 23.0628L32.0281 22.6999L11.5952 17.3826Z" fill="#9061F2"/>
<path d="M11.6865 17.0222L11.5923 17.385L32.0253 22.7023L32.1195 22.3395L11.6865 17.0222Z" fill="#8F5FF2"/>
<path d="M11.7802 16.6597L11.686 17.0225L32.119 22.3398L32.2132 21.977L11.7802 16.6597Z" fill="#8E5EF1"/>
<path d="M11.8745 16.2972L11.7803 16.66L32.2132 21.9773L32.3074 21.6145L11.8745 16.2972Z" fill="#8E5DF1"/>
<path d="M11.9682 15.9368L11.874 16.2996L32.307 21.6169L32.4012 21.2541L11.9682 15.9368Z" fill="#8D5CF1"/>
<path d="M12.0639 15.5748L11.9697 15.9377L32.4027 21.255L32.4969 20.8921L12.0639 15.5748Z" fill="#8C5BF1"/>
<path d="M12.1582 15.2123L12.064 15.5752L32.4969 20.8925L32.5911 20.5296L12.1582 15.2123Z" fill="#8B5AF1"/>
<path d="M12.2519 14.8499L12.1577 15.2127L32.5907 20.53L32.6849 20.1671L12.2519 14.8499Z" fill="#8A59F1"/>
<path d="M12.3437 14.4874L12.2495 14.8502L32.6825 20.1675L32.7767 19.8047L12.3437 14.4874Z" fill="#8A58F1"/>
<path d="M12.4394 14.1254L12.3452 14.4882L32.7782 19.8055L32.8724 19.4427L12.4394 14.1254Z" fill="#8957F0"/>
<path d="M12.5337 13.765L12.4395 14.1279L32.8724 19.4452L32.9666 19.0823L12.5337 13.765Z" fill="#8856F0"/>
<path d="M12.6274 13.4025L12.5332 13.7654L32.9662 19.0827L33.0604 18.7198L12.6274 13.4025Z" fill="#8755F0"/>
<path d="M12.7212 13.04L12.627 13.4029L33.0599 18.7202L33.1541 18.3573L12.7212 13.04Z" fill="#8653F0"/>
<path d="M12.8154 12.6776L12.7212 13.0404L33.1542 18.3577L33.2484 17.9948L12.8154 12.6776Z" fill="#8752F0"/>
<path d="M12.9091 12.3156L12.8149 12.6784L33.2479 17.9957L33.3421 17.6328L12.9091 12.3156Z" fill="#8651F1"/>
<path d="M13.0024 11.9551L12.9082 12.3179L33.3412 17.6352L33.4354 17.2724L13.0024 11.9551Z" fill="#8550F1"/>
<path d="M13.0962 11.5947L13.002 11.9576L33.4349 17.2749L33.5291 16.912L13.0962 11.5947Z" fill="#844FF1"/>
<path d="M13.1899 11.2322L13.0957 11.5951L33.5287 16.9124L33.6229 16.5495L13.1899 11.2322Z" fill="#844EF0"/>
<path d="M13.2841 10.8698L13.1899 11.2326L33.6229 16.5499L33.7171 16.187L13.2841 10.8698Z" fill="#834DF0"/>
<path d="M13.3798 10.5078L13.2856 10.8706L33.7186 16.1879L33.8128 15.825L13.3798 10.5078Z" fill="#824CF0"/>
<path d="M13.3804 10.5099L13.4745 10.1476L33.8626 15.4549V15.6392L33.8145 15.8277L13.3804 10.5099Z" fill="#814AF0"/>
<path d="M13.4746 10.1476L13.5687 9.78522L33.8627 15.0695V15.4549L13.4746 10.1476Z" fill="#8049F0"/>
<path d="M13.5688 9.78525L13.663 9.42291L33.8628 14.682V15.0695L13.5688 9.78525Z" fill="#8048F0"/>
<path d="M13.6626 9.42287L13.7567 9.06262L33.8624 14.2966V14.682L13.6626 9.42287Z" fill="#8047F0"/>
<path d="M13.7568 9.06265L13.851 8.70032L33.8625 13.9092V14.2966L13.7568 9.06265Z" fill="#7F46EF"/>
<path d="M13.8511 8.70029L13.9452 8.33795L33.8626 13.5238V13.9091L13.8511 8.70029Z" fill="#7E45EF"/>
<path d="M13.9453 8.33798L14.0374 7.97565L33.8627 13.1363V13.5238L13.9453 8.33798Z" fill="#7E43EF"/>
<path d="M14.0371 7.97562L14.1312 7.61328L33.8625 12.7509V13.1363L14.0371 7.97562Z" fill="#7D42EF"/>
<path d="M14.1313 7.61329L14.2255 7.25305L33.8626 12.3635V12.7509L14.1313 7.61329Z" fill="#7C41EF"/>
<path d="M14.2256 7.25302L14.3197 6.89069L33.8627 11.9781V12.3634L14.2256 7.25302Z" fill="#7B40EF"/>
<path d="M14.3198 6.89072L14.414 6.52838L33.8628 11.5906V11.9781L14.3198 6.89072Z" fill="#7A3FEF"/>
<path d="M14.4141 6.52835L14.5082 6.16602L33.8629 11.2052V11.5906L14.4141 6.52835Z" fill="#7A3EEE"/>
<path d="M14.5078 6.16605L14.602 5.80371L33.8625 10.8178V11.2053L14.5078 6.16605Z" fill="#793CEE"/>
<path d="M14.6021 5.80372L14.6962 5.44348L33.8626 10.4324V10.8178L14.6021 5.80372Z" fill="#783BEE"/>
<path d="M14.6963 5.44345L14.7904 5.08112L33.8627 10.047V10.4324L14.6963 5.44345Z" fill="#773AEE"/>
<path d="M14.7905 5.08115L14.8847 4.71881L33.8628 9.65958V10.0471L14.7905 5.08115Z" fill="#7639EE"/>
<path d="M14.8848 4.71878L14.9789 4.35645L33.8629 9.27418V9.65955L14.8848 4.71878Z" fill="#7638EE"/>
<path d="M14.9785 4.35646L15.0727 3.99622L33.8625 8.88672V9.27419L14.9785 4.35646Z" fill="#7536EE"/>
<path d="M15.0728 3.99619L15.1669 3.63385L33.8626 8.50132V8.88669L15.0728 3.99619Z" fill="#7435EE"/>
<path d="M15.167 3.63388L15.2611 3.27155L33.8627 8.11388V8.50135L15.167 3.63388Z" fill="#7334ED"/>
<path d="M15.2612 3.27152L15.3533 2.90918L33.8628 7.72848V8.11385L15.2612 3.27152Z" fill="#7433ED"/>
<path d="M15.353 2.90921L15.4472 2.54688L33.8626 7.34104V7.72851L15.353 2.90921Z" fill="#7331ED"/>
<path d="M15.4473 2.54683L15.5414 2.18658L33.8627 6.95561V7.34099L15.4473 2.54683Z" fill="#7230ED"/>
<path d="M15.5415 2.18661L16.0394 0.270203H33.8628V6.95564L15.5415 2.18661Z" fill="#7230ED"/>
</g>
<path opacity="0.27" d="M65.7249 77.2972C60.7314 78.5937 55.6333 75.5903 54.3384 70.5909L41.5044 12.6483C40.2094 7.64889 43.2093 2.54476 48.2028 1.2483C53.1962 -0.0481538 58.2943 2.95527 59.5892 7.95468L72.4233 65.8972C73.7182 70.8967 70.7184 76.0008 65.7249 77.2972Z" fill="#7230ED"/>
<mask id="mask1_735_1326" style="mask-type:luminance" maskUnits="userSpaceOnUse" x="54" y="0" width="33" height="78">
<path d="M79.7075 1.246L78.9705 1.07158C74.1538 -0.0684091 69.326 2.91685 68.1873 7.73935L54.2748 66.6634C53.1362 71.4859 56.1179 76.3195 60.9347 77.4595L61.6717 77.6339C66.4884 78.7739 71.3162 75.7886 72.4549 70.9661L86.3674 12.042C87.506 7.21955 84.5243 2.38599 79.7075 1.246Z" fill="white"/>
</mask>
<g mask="url(#mask1_735_1326)">
<path d="M53.1816 73.5398L71.21 78.0345L71.0364 78.7319H53.1816V73.5398Z" fill="white"/>
<path d="M53.1816 73.1377L71.3042 77.6575L71.21 78.0345L53.1816 73.5398V73.1377Z" fill="white"/>
<path d="M53.1816 72.7377L71.3983 77.2805L71.3042 77.6575L53.1816 73.1377V72.7377Z" fill="#FDFDFF"/>
<path d="M53.1816 72.3376L71.4924 76.9035L71.3983 77.2805L53.1816 72.7376V72.3376Z" fill="#FCFCFF"/>
<path d="M53.1816 71.9355L71.5866 76.5244L71.4924 76.9035L53.1816 72.3376V71.9355Z" fill="#FCFBFF"/>
<path d="M53.1816 71.5354L71.6807 76.1474L71.5866 76.5243L53.1816 71.9354V71.5354Z" fill="#FBFAFD"/>
<path d="M53.1816 71.1333L71.7748 75.7704L71.6807 76.1474L53.1816 71.5354V71.1333Z" fill="#FAF9FD"/>
<path d="M53.1816 70.7333L71.8669 75.3913L71.7748 75.7704L53.1816 71.1333V70.7333Z" fill="#F9F8FD"/>
<path d="M53.1816 70.3311L71.961 75.0143L71.8669 75.3913L53.1816 70.7333V70.3311Z" fill="#FAF7FF"/>
<path d="M53.1816 69.9311L72.0552 74.6373L71.961 75.0143L53.1816 70.3311V69.9311Z" fill="#F9F6FF"/>
<path d="M53.1816 69.529L72.1493 74.2603L72.0552 74.6373L53.1816 69.9311V69.529Z" fill="#F8F5FF"/>
<path d="M53.1816 69.1289L72.2434 73.8812L72.1493 74.2603L53.1816 69.5289V69.1289Z" fill="#F7F4FF"/>
<path d="M53.1816 68.7268L72.3376 73.5042L72.2434 73.8812L53.1816 69.1289V68.7268Z" fill="#F6F3FF"/>
<path d="M53.1816 68.3268L72.4317 73.1272L72.3376 73.5042L53.1816 68.7268V68.3268Z" fill="#F6F2FD"/>
<path d="M53.1816 67.9246L72.5259 72.7502L72.4317 73.1272L53.1816 68.3268V67.9246Z" fill="#F5F1FD"/>
<path d="M53.1816 67.5246L72.62 72.3711L72.5259 72.7502L53.1816 67.9246V67.5246Z" fill="#F4F0FD"/>
<path d="M53.1816 67.1246L72.7141 71.9941L72.62 72.3711L53.1816 67.5246V67.1246Z" fill="#F3EFFD"/>
<path d="M53.1816 66.7224L72.8062 71.6171L72.7141 71.9941L53.1816 67.1245V66.7224Z" fill="#F2EEFD"/>
<path d="M53.1816 66.3224L72.9003 71.238L72.8062 71.6171L53.1816 66.7224V66.3224Z" fill="#F2EDFD"/>
<path d="M53.1816 66.0187L53.2047 65.9265L72.9944 70.861L72.9003 71.238L53.1816 66.3224V66.0187Z" fill="#F1ECFD"/>
<path d="M53.3016 65.5542L53.2075 65.9323L72.999 70.869L73.093 70.491L53.3016 65.5542Z" fill="#F0EBFC"/>
<path d="M53.3963 65.1769L53.3022 65.5549L73.0937 70.4916L73.1878 70.1136L53.3963 65.1769Z" fill="#EFEAFD"/>
<path d="M53.4891 64.799L53.395 65.177L73.1865 70.1138L73.2805 69.7358L53.4891 64.799Z" fill="#EFE8FD"/>
<path d="M53.5833 64.4216L53.4893 64.7996L73.2807 69.7364L73.3748 69.3584L53.5833 64.4216Z" fill="#EEE7FD"/>
<path d="M53.678 64.0442L53.584 64.4222L73.3754 69.359L73.4695 68.981L53.678 64.0442Z" fill="#EDE6FD"/>
<path d="M53.7728 63.6669L53.6787 64.0449L73.4702 68.9816L73.5642 68.6036L53.7728 63.6669Z" fill="#ECE5FD"/>
<path d="M53.8651 63.2889L53.771 63.6669L73.5625 68.6037L73.6565 68.2257L53.8651 63.2889Z" fill="#EBE4FD"/>
<path d="M53.9598 62.9095L53.8657 63.2875L73.6572 68.2242L73.7512 67.8462L53.9598 62.9095Z" fill="#ECE3FC"/>
<path d="M54.0545 62.5321L53.9604 62.9101L73.7519 67.8469L73.846 67.4688L54.0545 62.5321Z" fill="#EBE2FC"/>
<path d="M54.1492 62.1547L54.0552 62.5327L73.8466 67.4695L73.9407 67.0915L54.1492 62.1547Z" fill="#EAE1FC"/>
<path d="M54.241 61.7789L54.147 62.1569L73.9384 67.0936L74.0325 66.7156L54.241 61.7789Z" fill="#E9E0FC"/>
<path d="M54.3358 61.4015L54.2417 61.7795L74.0332 66.7163L74.1272 66.3383L54.3358 61.4015Z" fill="#E9DFFC"/>
<path d="M54.4305 61.0241L54.3364 61.4022L74.1279 66.3389L74.222 65.9609L54.4305 61.0241Z" fill="#E8DEFC"/>
<path d="M54.5228 60.6462L54.4287 61.0242L74.2202 65.961L74.3142 65.583L54.5228 60.6462Z" fill="#E7DDFC"/>
<path d="M54.6175 60.2668L54.5234 60.6448L74.3149 65.5815L74.409 65.2035L54.6175 60.2668Z" fill="#E6DCFD"/>
<path d="M54.7122 59.8894L54.6182 60.2674L74.4096 65.2042L74.5037 64.8262L54.7122 59.8894Z" fill="#E5DBFC"/>
<path d="M54.8065 59.512L54.7124 59.89L74.5039 64.8268L74.5979 64.4488L54.8065 59.512Z" fill="#E5DAFC"/>
<path d="M54.8992 59.1341L54.8052 59.5121L74.5966 64.4489L74.6907 64.0709L54.8992 59.1341Z" fill="#E4D9FC"/>
<path d="M54.994 58.7568L54.8999 59.1348L74.6914 64.0715L74.7854 63.6935L54.994 58.7568Z" fill="#E3D8FC"/>
<path d="M55.0882 58.3794L54.9941 58.7574L74.7856 63.6942L74.8797 63.3161L55.0882 58.3794Z" fill="#E2D7FC"/>
<path d="M55.1785 58.0035L55.0845 58.3815L74.8759 63.3183L74.97 62.9403L55.1785 58.0035Z" fill="#E1D6FC"/>
<path d="M55.2728 57.6241L55.1787 58.0021L74.9702 62.9388L75.0642 62.5608L55.2728 57.6241Z" fill="#E1D5FC"/>
<path d="M55.3675 57.2467L55.2734 57.6247L75.0649 62.5615L75.159 62.1834L55.3675 57.2467Z" fill="#E0D4FB"/>
<path d="M55.4622 56.8693L55.3682 57.2473L75.1596 62.1841L75.2537 61.8061L55.4622 56.8693Z" fill="#DFD3FB"/>
<path d="M55.5545 56.4914L55.4604 56.8694L75.2519 61.8062L75.346 61.4282L55.5545 56.4914Z" fill="#DED2FB"/>
<path d="M55.6492 56.1141L55.5552 56.4921L75.3466 61.4288L75.4407 61.0508L55.6492 56.1141Z" fill="#DFD1FB"/>
<path d="M55.744 55.7367L55.6499 56.1147L75.4414 61.0515L75.5354 60.6734L55.744 55.7367Z" fill="#DED0FB"/>
<path d="M55.8363 55.3588L55.7422 55.7368L75.5336 60.6736L75.6277 60.2956L55.8363 55.3588Z" fill="#DDCFFB"/>
<path d="M55.931 54.9793L55.8369 55.3573L75.6284 60.2941L75.7224 59.9161L55.931 54.9793Z" fill="#DCCEFB"/>
<path d="M56.0257 54.6019L55.9316 54.9799L75.7231 59.9167L75.8172 59.5387L56.0257 54.6019Z" fill="#DBCDFC"/>
<path d="M56.1199 54.2266L56.0259 54.6046L75.8173 59.5414L75.9114 59.1634L56.1199 54.2266Z" fill="#DBCCFB"/>
<path d="M56.2122 53.8487L56.1182 54.2267L75.9096 59.1635L76.0037 58.7854L56.2122 53.8487Z" fill="#DACBFB"/>
<path d="M56.307 53.4714L56.2129 53.8494L76.0043 58.7861L76.0984 58.4081L56.307 53.4714Z" fill="#D9CAFB"/>
<path d="M56.4017 53.094L56.3076 53.472L76.0991 58.4088L76.1931 58.0307L56.4017 53.094Z" fill="#D8C9FB"/>
<path d="M56.4959 52.7166L56.4019 53.0946L76.1933 58.0314L76.2874 57.6534L56.4959 52.7166Z" fill="#D8C8FB"/>
<path d="M56.5887 52.3366L56.4946 52.7146L76.2861 57.6514L76.3802 57.2734L56.5887 52.3366Z" fill="#D7C6FB"/>
<path d="M56.6834 51.9592L56.5894 52.3372L76.3808 57.274L76.4749 56.896L56.6834 51.9592Z" fill="#D6C5FB"/>
<path d="M56.7777 51.5818L56.6836 51.9598L76.4751 56.8966L76.5691 56.5186L56.7777 51.5818Z" fill="#D5C4FA"/>
<path d="M56.8704 51.204L56.7764 51.582L76.5678 56.5187L76.6619 56.1407L56.8704 51.204Z" fill="#D4C3FA"/>
<path d="M56.9652 50.8266L56.8711 51.2046L76.6626 56.1414L76.7566 55.7633L56.9652 50.8266Z" fill="#D4C2FA"/>
<path d="M57.0589 50.4512L56.9648 50.8292L76.7563 55.766L76.8504 55.388L57.0589 50.4512Z" fill="#D3C1FA"/>
<path d="M57.1536 50.0739L57.0596 50.4519L76.851 55.3887L76.9451 55.0107L57.1536 50.0739Z" fill="#D2C0FA"/>
<path d="M57.2464 49.6939L57.1523 50.0719L76.9438 55.0087L77.0379 54.6307L57.2464 49.6939Z" fill="#D1BFFA"/>
<path d="M57.3406 49.3165L57.2466 49.6945L77.038 54.6313L77.1321 54.2533L57.3406 49.3165Z" fill="#D0BEFA"/>
<path d="M57.4354 48.9391L57.3413 49.3171L77.1328 54.2539L77.2268 53.8759L57.4354 48.9391Z" fill="#D1BDFA"/>
<path d="M57.5281 48.5613L57.4341 48.9393L77.2255 53.876L77.3196 53.498L57.5281 48.5613Z" fill="#D0BCF9"/>
<path d="M57.6224 48.1839L57.5283 48.5619L77.3198 53.4987L77.4138 53.1206L57.6224 48.1839Z" fill="#CFBBFA"/>
<path d="M57.7171 47.8065L57.623 48.1845L77.4145 53.1213L77.5086 52.7433L57.7171 47.8065Z" fill="#CEBAFA"/>
<path d="M57.8118 47.4291L57.7178 47.8071L77.5092 52.7439L77.6033 52.3659L57.8118 47.4291Z" fill="#CEB9FA"/>
<path d="M57.9041 47.0491L57.8101 47.4271L77.6015 52.3639L77.6956 51.9859L57.9041 47.0491Z" fill="#CDB8FA"/>
<path d="M57.9984 46.6738L57.9043 47.0518L77.6958 51.9886L77.7898 51.6106L57.9984 46.6738Z" fill="#CCB7FA"/>
<path d="M58.0931 46.2964L57.999 46.6744L77.7905 51.6112L77.8845 51.2332L58.0931 46.2964Z" fill="#CBB6FA"/>
<path d="M58.1854 45.9186L58.0913 46.2966L77.8828 51.2333L77.9768 50.8553L58.1854 45.9186Z" fill="#CAB5F9"/>
<path d="M58.2801 45.5412L58.186 45.9192L77.9775 50.856L78.0716 50.4779L58.2801 45.5412Z" fill="#CAB4F9"/>
<path d="M58.3748 45.1638L58.2808 45.5418L78.0722 50.4786L78.1663 50.1006L58.3748 45.1638Z" fill="#C9B3F9"/>
<path d="M58.4696 44.7864L58.3755 45.1644L78.1669 50.1012L78.261 49.7232L58.4696 44.7864Z" fill="#C8B2F9"/>
<path d="M58.5618 44.4064L58.4678 44.7844L78.2592 49.7212L78.3533 49.3432L58.5618 44.4064Z" fill="#C7B1F9"/>
<path d="M58.6566 44.029L58.5625 44.407L78.354 49.3438L78.448 48.9658L58.6566 44.029Z" fill="#C7B0F9"/>
<path d="M58.7513 43.6517L58.6572 44.0297L78.4487 48.9664L78.5428 48.5884L58.7513 43.6517Z" fill="#C6AFF9"/>
<path d="M58.8455 43.2743L58.7515 43.6523L78.5429 48.5891L78.637 48.211L58.8455 43.2743Z" fill="#C5AEF8"/>
<path d="M58.9378 42.8985L58.8438 43.2765L78.6352 48.2133L78.7293 47.8352L58.9378 42.8985Z" fill="#C4ADF8"/>
<path d="M59.0325 42.5211L58.9385 42.8991L78.7299 47.8359L78.824 47.4579L59.0325 42.5211Z" fill="#C3ACF8"/>
<path d="M59.1268 42.1437L59.0327 42.5217L78.8242 47.4585L78.9182 47.0805L59.1268 42.1437Z" fill="#C4ABF8"/>
<path d="M59.2196 41.7637L59.1255 42.1417L78.9169 47.0785L79.011 46.7005L59.2196 41.7637Z" fill="#C3AAF8"/>
<path d="M59.3143 41.3863L59.2202 41.7643L79.0117 46.7011L79.1057 46.3231L59.3143 41.3863Z" fill="#C2A9F9"/>
<path d="M59.4085 41.009L59.3145 41.387L79.1059 46.3237L79.2 45.9457L59.4085 41.009Z" fill="#C1A7F9"/>
<path d="M59.5032 40.6316L59.4092 41.0096L79.2006 45.9463L79.2947 45.5683L59.5032 40.6316Z" fill="#C0A6F9"/>
<path d="M59.596 40.2537L59.502 40.6317L79.2934 45.5685L79.3875 45.1905L59.596 40.2537Z" fill="#C0A5F8"/>
<path d="M59.6903 39.8763L59.5962 40.2543L79.3877 45.1911L79.4817 44.8131L59.6903 39.8763Z" fill="#BFA4F8"/>
<path d="M59.785 39.4989L59.6909 39.877L79.4824 44.8137L79.5764 44.4357L59.785 39.4989Z" fill="#BEA3F8"/>
<path d="M59.8773 39.121L59.7832 39.499L79.5747 44.4358L79.6687 44.0578L59.8773 39.121Z" fill="#BDA2F8"/>
<path d="M59.9715 38.7436L59.8774 39.1216L79.6689 44.0584L79.763 43.6804L59.9715 38.7436Z" fill="#BDA1F8"/>
<path d="M60.0662 38.3663L59.9722 38.7443L79.7636 43.681L79.8577 43.303L60.0662 38.3663Z" fill="#BCA0F8"/>
<path d="M60.161 37.9889L60.0669 38.3669L79.8584 43.3036L79.9524 42.9256L60.161 37.9889Z" fill="#BB9FF8"/>
<path d="M60.2532 37.611L60.1592 37.989L79.9506 42.9258L80.0447 42.5478L60.2532 37.611Z" fill="#BA9EF7"/>
<path d="M60.348 37.2336L60.2539 37.6116L80.0454 42.5484L80.1394 42.1704L60.348 37.2336Z" fill="#B99DF7"/>
<path d="M60.4427 36.8562L60.3486 37.2343L80.1401 42.171L80.2342 41.793L60.4427 36.8562Z" fill="#B99CF7"/>
<path d="M60.535 36.4762L60.4409 36.8542L80.2324 41.791L80.3264 41.413L60.535 36.4762Z" fill="#B89BF7"/>
<path d="M60.6297 36.0989L60.5356 36.4769L80.3271 41.4136L80.4212 41.0356L60.6297 36.0989Z" fill="#B799F7"/>
<path d="M60.7244 35.7215L60.6304 36.0995L80.4218 41.0363L80.5159 40.6583L60.7244 35.7215Z" fill="#B698F7"/>
<path d="M60.8187 35.3462L60.7246 35.7242L80.5161 40.6609L80.6101 40.2829L60.8187 35.3462Z" fill="#B797F7"/>
<path d="M60.911 34.9683L60.8169 35.3463L80.6084 40.2831L80.7024 39.9051L60.911 34.9683Z" fill="#B696F7"/>
<path d="M61.0057 34.5909L60.9116 34.9689L80.7031 39.9057L80.7971 39.5277L61.0057 34.5909Z" fill="#B595F6"/>
<path d="M61.1004 34.2135L61.0063 34.5916L80.7978 39.5283L80.8919 39.1503L61.1004 34.2135Z" fill="#B494F6"/>
<path d="M61.1927 33.834L61.0986 34.212L80.8901 39.1488L80.9842 38.7708L61.1927 33.834Z" fill="#B393F6"/>
<path d="M61.2855 33.4562L61.1914 33.8342L80.9829 38.7709L81.0769 38.3929L61.2855 33.4562Z" fill="#B392F7"/>
<path d="M61.3797 33.0788L61.2856 33.4568L81.0771 38.3936L81.1712 38.0155L61.3797 33.0788Z" fill="#B290F7"/>
<path d="M61.4744 32.7014L61.3804 33.0794L81.1718 38.0162L81.2659 37.6382L61.4744 32.7014Z" fill="#B18FF7"/>
<path d="M61.5672 32.3235L61.4731 32.7015L81.2646 37.6383L81.3587 37.2603L61.5672 32.3235Z" fill="#B08EF7"/>
<path d="M61.6614 31.9462L61.5674 32.3242L81.3588 37.2609L81.4529 36.8829L61.6614 31.9462Z" fill="#B08DF6"/>
<path d="M61.7557 31.5708L61.6616 31.9489L81.4531 36.8856L81.5471 36.5076L61.7557 31.5708Z" fill="#AF8CF6"/>
<path d="M61.8504 31.1913L61.7563 31.5693L81.5478 36.5061L81.6419 36.1281L61.8504 31.1913Z" fill="#AE8BF6"/>
<path d="M61.9427 30.8135L61.8486 31.1915L81.6401 36.1282L81.7342 35.7502L61.9427 30.8135Z" fill="#AD8AF6"/>
<path d="M62.0374 30.4361L61.9434 30.8141L81.7348 35.7509L81.8289 35.3728L62.0374 30.4361Z" fill="#AC89F6"/>
<path d="M62.1322 30.0587L62.0381 30.4367L81.8295 35.3735L81.9236 34.9955L62.1322 30.0587Z" fill="#AC88F6"/>
<path d="M62.2244 29.6808L62.1304 30.0588L81.9218 34.9956L82.0159 34.6176L62.2244 29.6808Z" fill="#AB87F6"/>
<path d="M62.3192 29.3034L62.2251 29.6815L82.0166 34.6182L82.1106 34.2402L62.3192 29.3034Z" fill="#AA86F6"/>
<path d="M62.4139 28.9261L62.3198 29.3041L82.1113 34.2408L82.2053 33.8628L62.4139 28.9261Z" fill="#A985F5"/>
<path d="M62.5086 28.5466L62.4146 28.9246L82.206 33.8614L82.3001 33.4834L62.5086 28.5466Z" fill="#A884F5"/>
<path d="M62.6009 28.1687L62.5068 28.5468L82.2983 33.4835L82.3924 33.1055L62.6009 28.1687Z" fill="#A983F5"/>
<path d="M62.6951 27.7934L62.6011 28.1714L82.3925 33.1082L82.4866 32.7301L62.6951 27.7934Z" fill="#A882F5"/>
<path d="M62.7899 27.416L62.6958 27.794L82.4873 32.7308L82.5813 32.3528L62.7899 27.416Z" fill="#A781F5"/>
<path d="M62.8822 27.0381L62.7881 27.4161L82.5795 32.3529L82.6736 31.9749L62.8822 27.0381Z" fill="#A680F5"/>
<path d="M62.9769 26.6608L62.8828 27.0388L82.6743 31.9755L82.7683 31.5975L62.9769 26.6608Z" fill="#A680F5"/>
<path d="M63.0716 26.2834L62.9775 26.6614L82.769 31.5981L82.8631 31.2201L63.0716 26.2834Z" fill="#A57FF4"/>
<path d="M63.1658 25.9039L63.0718 26.2819L82.8632 31.2187L82.9573 30.8407L63.1658 25.9039Z" fill="#A47EF4"/>
<path d="M63.2586 25.526L63.1646 25.904L82.956 30.8408L83.0501 30.4627L63.2586 25.526Z" fill="#A37CF4"/>
<path d="M63.3533 25.1486L63.2593 25.5266L83.0507 30.4634L83.1448 30.0854L63.3533 25.1486Z" fill="#A27BF4"/>
<path d="M63.4476 24.7712L63.3535 25.1492L83.145 30.086L83.239 29.708L63.4476 24.7712Z" fill="#A27AF4"/>
<path d="M63.5423 24.3939L63.4482 24.7719L83.2397 29.7087L83.3338 29.3307L63.5423 24.3939Z" fill="#A179F4"/>
<path d="M63.6346 24.018L63.5405 24.3961L83.332 29.3328L83.4261 28.9548L63.6346 24.018Z" fill="#A078F5"/>
<path d="M63.7288 23.6407L63.6348 24.0187L83.4262 28.9554L83.5203 28.5774L63.7288 23.6407Z" fill="#9F77F4"/>
<path d="M63.8236 23.2633L63.7295 23.6413L83.521 28.5781L83.615 28.2001L63.8236 23.2633Z" fill="#9F76F4"/>
<path d="M63.9163 22.8833L63.8223 23.2613L83.6137 28.1981L83.7078 27.8201L63.9163 22.8833Z" fill="#9E75F4"/>
<path d="M64.0106 22.5059L63.9165 22.8839L83.708 27.8207L83.802 27.4427L64.0106 22.5059Z" fill="#9D74F4"/>
<path d="M64.1053 22.1285L64.0112 22.5065L83.8027 27.4433L83.8968 27.0653L64.1053 22.1285Z" fill="#9C73F4"/>
<path d="M64.2 21.7511L64.106 22.1292L83.8974 27.0659L83.9915 26.6879L64.2 21.7511Z" fill="#9B72F4"/>
<path d="M64.2923 21.3733L64.1982 21.7513L83.9897 26.688L84.0838 26.31L64.2923 21.3733Z" fill="#9B71F4"/>
<path d="M64.387 20.9959L64.293 21.3739L84.0844 26.3107L84.1785 25.9327L64.387 20.9959Z" fill="#9A70F4"/>
<path d="M64.4818 20.6185L64.3877 20.9965L84.1792 25.9333L84.2732 25.5553L64.4818 20.6185Z" fill="#996FF3"/>
<path d="M64.5736 20.2406L64.4795 20.6186L84.271 25.5554L84.365 25.1773L64.5736 20.2406Z" fill="#986EF3"/>
<path d="M64.6683 19.8632L64.5742 20.2412L84.3657 25.178L84.4597 24.8L64.6683 19.8632Z" fill="#976DF3"/>
<path d="M64.763 19.4858L64.6689 19.8638L84.4604 24.8006L84.5545 24.4226L64.763 19.4858Z" fill="#986BF3"/>
<path d="M64.8577 19.1084L64.7637 19.4865L84.5551 24.4232L84.6492 24.0452L64.8577 19.1084Z" fill="#976AF3"/>
<path d="M64.95 18.7306L64.856 19.1086L84.6474 24.0453L84.7415 23.6673L64.95 18.7306Z" fill="#9669F3"/>
<path d="M65.0448 18.3532L64.9507 18.7312L84.7421 23.668L84.8362 23.29L65.0448 18.3532Z" fill="#9568F3"/>
<path d="M65.1395 17.9758L65.0454 18.3538L84.8369 23.2906L84.9309 22.9126L65.1395 17.9758Z" fill="#9567F2"/>
<path d="M65.2337 17.5964L65.1396 17.9744L84.9311 22.9111L85.0252 22.5331L65.2337 17.5964Z" fill="#9466F2"/>
<path d="M65.3265 17.2185L65.2324 17.5965L85.0239 22.5333L85.1179 22.1553L65.3265 17.2185Z" fill="#9365F2"/>
<path d="M65.4212 16.8411L65.3271 17.2191L85.1186 22.1559L85.2127 21.7779L65.4212 16.8411Z" fill="#9264F2"/>
<path d="M65.515 16.4657L65.4209 16.8438L85.2124 21.7805L85.3064 21.4025L65.515 16.4657Z" fill="#9163F2"/>
<path d="M65.6077 16.0879L65.5137 16.4659L85.3051 21.4026L85.3992 21.0246L65.6077 16.0879Z" fill="#9162F2"/>
<path d="M65.7025 15.7105L65.6084 16.0885L85.3999 21.0253L85.4939 20.6473L65.7025 15.7105Z" fill="#9061F2"/>
<path d="M65.7967 15.3331L65.7026 15.7111L85.4941 20.6479L85.5882 20.2699L65.7967 15.3331Z" fill="#8F5FF2"/>
<path d="M65.8914 14.9537L65.7974 15.3317L85.5888 20.2684L85.6829 19.8904L65.8914 14.9537Z" fill="#8E5EF1"/>
<path d="M65.9842 14.5757L65.8901 14.9537L85.6816 19.8905L85.7757 19.5125L65.9842 14.5757Z" fill="#8E5DF1"/>
<path d="M66.0784 14.1984L65.9844 14.5764L85.7758 19.5132L85.8699 19.1352L66.0784 14.1984Z" fill="#8D5CF1"/>
<path d="M66.1732 13.821L66.0791 14.199L85.8706 19.1358L85.9646 18.7578L66.1732 13.821Z" fill="#8C5BF1"/>
<path d="M66.2659 13.4431L66.1719 13.8211L85.9633 18.7579L86.0574 18.3799L66.2659 13.4431Z" fill="#8B5AF1"/>
<path d="M66.3602 13.0657L66.2661 13.4437L86.0576 18.3805L86.1516 18.0025L66.3602 13.0657Z" fill="#8A59F1"/>
<path d="M66.4544 12.6904L66.3604 13.0684L86.1518 18.0052L86.2459 17.6272L66.4544 12.6904Z" fill="#8A58F1"/>
<path d="M66.5491 12.3109L66.4551 12.6889L86.2465 17.6257L86.3406 17.2477L66.5491 12.3109Z" fill="#8957F0"/>
<path d="M66.6414 11.933L66.5474 12.311L86.3388 17.2478L86.4329 16.8698L66.6414 11.933Z" fill="#8856F0"/>
<path d="M66.7362 11.5556L66.6421 11.9337L86.4335 16.8704L86.5276 16.4924L66.7362 11.5556Z" fill="#8755F0"/>
<path d="M66.8309 11.1783L66.7368 11.5563L86.5283 16.493L86.6223 16.115L66.8309 11.1783Z" fill="#8653F0"/>
<path d="M66.9232 10.8004L66.8291 11.1784L86.6206 16.1152L86.7146 15.7372L66.9232 10.8004Z" fill="#8752F0"/>
<path d="M67.0179 10.423L66.9238 10.801L86.7153 15.7378L86.8094 15.3598L67.0179 10.423Z" fill="#8651F1"/>
<path d="M67.1126 10.0456L67.0186 10.4236L86.81 15.3604L86.9041 14.9824L67.1126 10.0456Z" fill="#8550F1"/>
<path d="M67.2073 9.66618L67.1133 10.0442L86.9047 14.981L86.9988 14.6029L67.2073 9.66618Z" fill="#844FF1"/>
<path d="M67.2977 9.28831L67.2036 9.66632L86.9951 14.6031L87.0891 14.2251L67.2977 9.28831Z" fill="#844EF0"/>
<path d="M67.3919 8.91294L67.2979 9.29095L87.0893 14.2277L87.1834 13.8497L67.3919 8.91294Z" fill="#834DF0"/>
<path d="M67.4862 8.53557L67.3921 8.91357L87.1835 13.8503L87.2776 13.4723L67.4862 8.53557Z" fill="#824CF0"/>
<path d="M67.5809 8.15819L67.4868 8.53619L87.2783 13.473L87.3723 13.095L67.5809 8.15819Z" fill="#814AF0"/>
<path d="M67.6737 7.78031L67.5796 8.15833L87.371 13.0951L87.4651 12.7171L67.6737 7.78031Z" fill="#8049F0"/>
<path d="M67.6685 7.77873L67.7626 7.40173L87.4687 12.3153V12.6776L87.4603 12.7132L67.6685 7.77873Z" fill="#8048F0"/>
<path d="M67.7627 7.40174L67.8568 7.02264L87.4688 11.9132V12.3153L67.7627 7.40174Z" fill="#8047F0"/>
<path d="M67.8564 7.02263L67.9506 6.64563L87.4684 11.5131V11.9131L67.8564 7.02263Z" fill="#7F46EF"/>
<path d="M67.9507 6.64567L68.0448 6.26868L87.4685 11.111V11.5131L67.9507 6.64567Z" fill="#7E45EF"/>
<path d="M68.0449 6.26862L68.1391 5.88953L87.4686 10.7109V11.111L68.0449 6.26862Z" fill="#7E43EF"/>
<path d="M68.1392 5.88957L68.2333 5.51257L87.4687 10.3088V10.711L68.1392 5.88957Z" fill="#7D42EF"/>
<path d="M68.2334 5.51256L68.3254 5.13556L87.4688 9.90878V10.3088L68.2334 5.51256Z" fill="#7C41EF"/>
<path d="M68.3252 5.13554L68.4193 4.75854L87.4686 9.50663V9.90876L68.3252 5.13554Z" fill="#7B40EF"/>
<path d="M68.4194 4.75855L68.5136 4.37946L87.4687 9.1066V9.50663L68.4194 4.75855Z" fill="#7A3FEF"/>
<path d="M68.5137 4.37944L68.6078 4.00244L87.4688 8.70445V9.10658L68.5137 4.37944Z" fill="#7A3EEE"/>
<path d="M68.6074 4.00249L68.7016 3.62549L87.4684 8.30446V8.70449L68.6074 4.00249Z" fill="#793CEE"/>
<path d="M68.7017 3.62549L68.7958 3.2464L87.4685 7.90442V8.30446L68.7017 3.62549Z" fill="#783BEE"/>
<path d="M68.7959 3.24638L68.89 2.86938L87.4686 7.50227V7.90441L68.7959 3.24638Z" fill="#773AEE"/>
<path d="M68.8901 2.86937L68.9843 2.49237L87.4687 7.10222V7.50226L68.8901 2.86937Z" fill="#7639EE"/>
<path d="M68.9844 2.49235L69.0785 2.11536L87.4688 6.70007V7.10221L68.9844 2.49235Z" fill="#7638EE"/>
<path d="M69.0781 2.11536L69.1723 1.73627L87.4684 6.30004V6.70008L69.0781 2.11536Z" fill="#7536EE"/>
<path d="M69.1724 1.73631L69.2644 1.35931L87.4685 5.89795V6.30009L69.1724 1.73631Z" fill="#7435EE"/>
<path d="M69.2646 1.3593L69.3588 0.9823L87.4687 5.4979V5.89794L69.2646 1.3593Z" fill="#7334ED"/>
<path d="M69.3589 0.982284L69.453 0.605286L87.4689 5.09575V5.49789L69.3589 0.982284Z" fill="#7433ED"/>
<path d="M69.4526 0.605289L69.5468 0.226196L87.4685 4.69572V5.09576L69.4526 0.605289Z" fill="#7331ED"/>
<path d="M69.5469 0.226202L69.6117 -0.0335083H70.1117L87.4686 4.29359V4.69573L69.5469 0.226202Z" fill="#7230ED"/>
<path d="M87.4687 4.29359L70.1118 -0.0335083H87.4687V4.29359Z" fill="#7230ED"/>
</g>
<path opacity="0.43" d="M27.7222 66.3404C26.5354 71.3666 29.6431 76.4044 34.6634 77.5926C39.6837 78.7807 44.7155 75.6693 45.9022 70.6431L59.6405 12.4569C60.8272 7.43061 57.7195 2.39283 52.6993 1.20468C47.679 0.0165222 42.6472 3.12792 41.4605 8.15417L27.7222 66.3404Z" fill="#00E9AF"/>
<path d="M23.5847 19.6228C28.7642 19.6228 32.9629 15.419 32.9629 10.2334C32.9629 5.04781 28.7642 0.844055 23.5847 0.844055C18.4053 0.844055 14.2065 5.04781 14.2065 10.2334C14.2065 15.419 18.4053 19.6228 23.5847 19.6228Z" fill="#7230ED"/>
<path d="M36.8811 77.8648C42.0605 77.8648 46.2593 73.6611 46.2593 68.4755C46.2593 63.2899 42.0605 59.0861 36.8811 59.0861C31.7017 59.0861 27.5029 63.2899 27.5029 68.4755C27.5029 73.6611 31.7017 77.8648 36.8811 77.8648Z" fill="#7230ED"/>
<path d="M77.241 19.6228C82.4204 19.6228 86.6192 15.419 86.6192 10.2334C86.6192 5.04781 82.4204 0.844055 77.241 0.844055C72.0616 0.844055 67.8628 5.04781 67.8628 10.2334C67.8628 15.419 72.0616 19.6228 77.241 19.6228Z" fill="#7230ED"/>
<path d="M96.7337 34.5561V13.6453H100.277L107.02 30.2939L113.762 13.6453H117.362V34.5561H113.819V28.1199C113.819 23.9143 113.819 22.6848 114.019 21.1978L108.704 34.5582H105.332L100.045 21.2271C100.246 22.4859 100.273 24.4588 100.273 27.0622V34.5582H96.7295L96.7337 34.5561Z" fill="#241234"/>
<path d="M121.078 15.4758C121.078 14.3029 122.021 13.3876 123.22 13.3876C124.418 13.3876 125.305 14.3029 125.305 15.4758C125.305 16.6487 124.362 17.5933 123.22 17.5933C122.019 17.5933 121.078 16.6487 121.078 15.4758ZM121.477 20.4249H124.962V34.5561H121.477V20.4249Z" fill="#241234"/>
<path d="M127.935 30.5222C127.935 27.9188 129.82 26.2893 133.163 26.0317L137.391 25.7175V25.4034C137.391 23.487 136.249 22.7141 134.477 22.7141C132.42 22.7141 131.276 23.5728 131.276 25.0599H128.303C128.303 21.9999 130.818 19.9955 134.646 19.9955C138.474 19.9955 140.79 22.0544 140.79 25.9752V34.5582H137.734L137.477 32.47C136.876 33.9298 134.962 34.931 132.761 34.931C129.761 34.931 127.933 33.1863 127.933 30.5264L127.935 30.5222ZM137.42 28.8341V28.0905L134.477 28.3188C132.305 28.5199 131.477 29.2341 131.477 30.3777C131.477 31.6657 132.335 32.2941 133.906 32.2941C136.048 32.2941 137.42 31.006 137.42 28.832V28.8341Z" fill="#241234"/>
<path d="M144.221 34.5561V20.4249H147.421L147.708 22.0837C148.421 20.9108 149.85 19.9955 151.879 19.9955C154.021 19.9955 155.509 21.0532 156.251 22.6848C156.965 21.0532 158.624 19.9955 160.766 19.9955C164.195 19.9955 166.082 22.0544 166.082 25.3154V34.5561H162.624V26.2307C162.624 24.1991 161.538 23.1414 159.881 23.1414C158.224 23.1414 156.908 24.2284 156.908 26.5448V34.554H153.423V26.2014C153.423 24.2284 152.367 23.1686 150.708 23.1686C149.049 23.1686 147.708 24.2556 147.708 26.5448V34.554H144.223L144.221 34.5561Z" fill="#241234"/>
<path d="M169.108 15.4758C169.108 14.3029 170.052 13.3876 171.251 13.3876C172.449 13.3876 173.336 14.3029 173.336 15.4758C173.336 16.6487 172.393 17.5933 171.251 17.5933C170.05 17.5933 169.108 16.6487 169.108 15.4758ZM169.508 20.4249H172.993V34.5561H169.508V20.4249Z" fill="#241234"/>
<path d="M94.9053 47.973H110.791V51.3493H104.677V68.886H101.02V51.3493H94.9053V47.973Z" fill="#241234"/>
<path d="M109.848 61.8194C109.848 57.3854 112.735 54.3234 116.877 54.3234C121.019 54.3234 123.791 57.155 123.791 61.5617V62.6194L113.161 62.6487C113.419 65.1369 114.732 66.3957 117.048 66.3957C118.962 66.3957 120.22 65.6522 120.619 64.3075H123.847C123.247 67.3968 120.676 69.2567 116.99 69.2567C112.789 69.2567 109.846 66.1967 109.846 61.8194H109.848ZM113.247 60.4161H120.333C120.333 58.4703 118.99 57.1844 116.904 57.1844C114.818 57.1844 113.59 58.3007 113.247 60.4161Z" fill="#241234"/>
<path d="M132.82 54.3234C136.677 54.3234 139.305 56.4681 139.677 59.8736H136.192C135.792 58.2714 134.621 57.442 132.964 57.442C130.736 57.442 129.249 59.1301 129.249 61.79C129.249 64.45 130.621 66.1108 132.849 66.1108C134.592 66.1108 135.82 65.2521 136.192 63.7085H139.706C139.278 66.9989 136.535 69.2588 132.849 69.2588C128.563 69.2588 125.764 66.2847 125.764 61.7921C125.764 57.2996 128.651 54.3255 132.822 54.3255L132.82 54.3234Z" fill="#241234"/>
<path d="M142.307 68.8839V47.6002H145.821V56.5833C146.706 55.2093 148.365 54.3234 150.392 54.3234C153.877 54.3234 155.708 56.5267 155.708 60.1878V68.8839H152.222V61.0172C152.222 58.6421 151.051 57.4985 149.279 57.4985C147.078 57.4985 145.794 59.0442 145.794 61.1596V68.8839H142.309H142.307Z" fill="#241234"/>
<path d="M165.479 47.973H169.28L172.594 59.0149C172.907 60.1584 173.221 61.3313 173.537 63.164C173.88 61.3041 174.194 60.2171 174.566 59.0149L177.853 47.973H181.882L185.11 59.0149C185.453 60.1878 185.767 61.39 186.11 63.164C186.509 61.2182 186.796 60.1019 187.11 59.0442L190.482 47.973H194.197L187.854 68.8839H184.311L179.853 53.6657L175.309 68.8839H171.709L165.479 47.973Z" fill="#241234"/>
<path d="M201.109 54.3527C205.481 54.3527 208.653 57.3854 208.653 61.79C208.653 66.1946 205.481 69.2273 201.109 69.2273C196.737 69.2273 193.565 66.1946 193.565 61.79C193.565 57.3854 196.737 54.3527 201.109 54.3527ZM201.109 66.1087C203.508 66.1087 205.165 64.3641 205.165 61.7879C205.165 59.2118 203.508 57.4692 201.109 57.4692C198.71 57.4692 197.051 59.2138 197.051 61.7879C197.051 64.362 198.707 66.1087 201.109 66.1087Z" fill="#241234"/>
<path d="M220.282 57.9279H218.995C216.481 57.9279 214.909 59.2725 214.909 62.0183V68.8839H211.424V54.78H214.711L214.912 56.8388C215.512 55.4376 216.855 54.493 218.74 54.493C219.225 54.493 219.711 54.5496 220.284 54.6941V57.9258L220.282 57.9279Z" fill="#241234"/>
<path d="M222.71 68.8839V47.6002H226.168V60.6737L231.654 54.7527H236.026L230.654 60.3595L235.911 68.8839H231.911L228.225 62.9336L226.168 65.0783V68.8839H222.71Z" fill="#241234"/>
<path d="M240.224 64.5924C240.254 65.8218 241.168 66.5947 242.768 66.5947C244.368 66.5947 245.283 65.937 245.283 64.9066C245.283 64.1924 244.91 63.6771 243.653 63.3902L241.109 62.7891C238.565 62.2173 237.337 61.0151 237.337 58.7552C237.337 55.9801 239.68 54.3213 242.938 54.3213C246.195 54.3213 248.253 56.1518 248.28 58.8976H244.967C244.937 57.6954 244.138 56.9247 242.795 56.9247C241.452 56.9247 240.624 57.553 240.624 58.6128C240.624 59.4129 241.251 59.9281 242.452 60.215L244.996 60.8161C247.368 61.3607 248.567 62.4477 248.567 64.6217C248.567 67.4827 246.138 69.2567 242.653 69.2567C239.168 69.2567 236.911 67.3696 236.911 64.5945H240.224V64.5924Z" fill="#241234"/>
</g>
<defs>
<clipPath id="clip0_735_1326">
<rect width="249" height="79" fill="white"/>
</clipPath>
</defs>
</svg>
